<svg xmlns="http://www.w3.org/2000/svg" width="560.953" height="492.11" viewBox="0 0 560.953 492.11"><g transform="translate(-1177.178 -3058.917)"><g transform="translate(0 231.112)"><circle cx="185.768" cy="185.768" r="185.768" transform="translate(1226 2899)" fill="#eff8ff"/><circle cx="234.253" cy="234.253" r="234.253" transform="translate(1177.7 2850.888)" fill="none" stroke="#002e4e" stroke-miterlimit="10" stroke-width="1.044" stroke-dasharray="6.262"/><g transform="translate(106 1481)"><g transform="translate(1220.471 1525.339)"><path d="M12.97,28.9A11.447,11.447,0,0,0,29.158,12.711Z" transform="translate(86.211 84.493)" fill="#ef7f65"/><path d="M15.184,9.794l-5.4,5.4,5.4,5.4,5.4-5.4a3.816,3.816,0,0,0-5.4-5.4Z" transform="translate(65.107 57.728)" fill="#ef7f65"/><path d="M177.241,91.279,93.859,6.172a20.77,20.77,0,0,0-14.768-6.2h-.038L13.293.135A13.208,13.208,0,0,0,.135,13.293L-.025,79.06a20.808,20.808,0,0,0,6.2,14.8l85.107,83.382a20.723,20.723,0,0,0,29.063-.145L177.1,120.343a20.72,20.72,0,0,0,.145-29.063ZM38.327,53.591A15.264,15.264,0,1,1,53.591,38.327,15.28,15.28,0,0,1,38.327,53.591ZM76.221,98.522a5.726,5.726,0,0,1-8.1-8.1l4.045-4.045-5.4-5.4-4.045,4.045a5.726,5.726,0,0,1-8.1-8.1L72.168,59.392A15.262,15.262,0,0,1,93.752,80.976Zm47.221,22.942a22.922,22.922,0,0,1-32.383,0l-4.045-4.045a5.726,5.726,0,0,1,0-8.1L111.3,85.036a5.726,5.726,0,0,1,8.1,0l4.045,4.045A22.922,22.922,0,0,1,123.441,121.465Z" transform="translate(0.025 0.025)" fill="#ef7f65"/></g><g transform="translate(1193 1491)"><g transform="translate(0)" fill="none" stroke="#db664a" stroke-width="4"><circle cx="112.29" cy="112.29" r="112.29" stroke="none"/><circle cx="112.29" cy="112.29" r="110.29" fill="none"/></g><line y1="184.387" x2="108.706" transform="translate(60.145 21.616)" fill="none" stroke="#db664a" stroke-width="4"/></g></g></g><g transform="translate(133 -1041)"><rect width="183.044" height="114.947" rx="13.167" transform="translate(1421.602 4100.402)" fill="#fff" stroke="#002e4e" stroke-miterlimit="10" stroke-width="0.971"/><line x2="135.83" transform="translate(1445.208 4130.546)" fill="none" stroke="#a6b7bc" stroke-miterlimit="10" stroke-width="1"/><line x2="102.054" transform="translate(1462.641 4152.337)" fill="none" stroke="#a6b7bc" stroke-miterlimit="10" stroke-width="1"/><rect width="88.253" height="23.97" rx="11" transform="translate(1476 4171.946)" fill="#4bd195"/><text transform="translate(1520 4186.947)" fill="#fff" font-size="9" font-family="Rubik-Regular, Rubik"><tspan x="-11.488" y="0">Block</tspan></text></g><rect width="176.507" height="61.015" rx="13.167" transform="translate(1545.188 3478.447)" fill="#fff" stroke="#002e4e" stroke-miterlimit="10" stroke-width="1.48"/><text transform="translate(1619.317 3513)" fill="#a6b7bc" font-size="12" font-family="Rubik-Regular, Rubik"><tspan x="0" y="0">Block adds</tspan></text><circle cx="20.701" cy="20.701" r="20.701" transform="translate(1557 3488)" fill="#4bd195"/><path d="M15.25,7h-.583V4.667a4.667,4.667,0,1,0-9.333,0V7H4.75A1.752,1.752,0,0,0,3,8.75v8.167a1.752,1.752,0,0,0,1.75,1.75h10.5A1.752,1.752,0,0,0,17,16.917V8.75A1.752,1.752,0,0,0,15.25,7ZM6.889,4.667a3.111,3.111,0,1,1,6.222,0V7H6.889Zm3.889,8.339v1.772a.778.778,0,0,1-1.556,0V13.006a1.556,1.556,0,1,1,1.556,0Z" transform="translate(1568 3499)" fill="#fff"/></g></svg>