<svg xmlns="http://www.w3.org/2000/svg" xmlns:xlink="http://www.w3.org/1999/xlink" width="648.683" height="513.285" viewBox="0 0 648.683 513.285"><defs><filter id="a" x="446.669" y="0" width="202.015" height="133.918" filterUnits="userSpaceOnUse"><feOffset dy="3" input="SourceAlpha"/><feGaussianBlur stdDeviation="3" result="b"/><feFlood flood-opacity="0.161"/><feComposite operator="in" in2="b"/><feComposite in="SourceGraphic"/></filter><filter id="c" x="0" y="432.79" width="195.987" height="80.495" filterUnits="userSpaceOnUse"><feOffset dy="3" input="SourceAlpha"/><feGaussianBlur stdDeviation="3" result="d"/><feFlood flood-opacity="0.161"/><feComposite operator="in" in2="d"/><feComposite in="SourceGraphic"/></filter></defs><g transform="translate(-1115.448 -1493.916)"><g transform="translate(-96 43.112)"><circle cx="185.768" cy="185.768" r="185.768" transform="translate(1322 1517)" fill="#eff8ff"/><circle cx="234.253" cy="234.253" r="234.253" transform="translate(1273.7 1468.888)" fill="none" stroke="#002e4e" stroke-miterlimit="10" stroke-width="1.044" stroke-dasharray="6.262"/><g transform="translate(1374.667 1581)"><g transform="translate(21.333)"><path d="M336.967,26.733a5.043,5.043,0,0,0-4.356.947,5.12,5.12,0,0,0-1.944,4.012V80.775a5.106,5.106,0,0,0,2.532,4.411,35.324,35.324,0,0,1,17.885,30.759,5.1,5.1,0,0,0,5.1,5.1h45.938a5.1,5.1,0,0,0,5.1-5.1A91.529,91.529,0,0,0,336.967,26.733Z" transform="translate(-182.645 -13.863)" fill="#2096f3"/><path d="M73.268,96.979h58.459a5.116,5.116,0,0,0,4.676-3.055,45.94,45.94,0,0,1,42.06-27.57,5.1,5.1,0,0,0,5.1-5.1V5.1a5.1,5.1,0,0,0-5.1-5.1A112.376,112.376,0,0,0,68.253,90.908a5.105,5.105,0,0,0,5.014,6.071Z" transform="translate(-45.753)" fill="#2096f3"/><path d="M211.732,234.208h-22.52a5.092,5.092,0,0,0-4.406,2.537,35.37,35.37,0,0,1-30.764,17.88,5.1,5.1,0,0,0-5.1,5.1v14.8A45.838,45.838,0,0,1,108.1,229.1,5.1,5.1,0,0,0,103,224H26.437a5.1,5.1,0,0,0-5.1,5.1c0,73.178,59.535,132.708,132.709,132.708a5.1,5.1,0,0,0,5.1-5.1V284.848a66.325,66.325,0,0,0,57.4-43.83,5.11,5.11,0,0,0-4.815-6.809Z" transform="translate(-21.333 -116.813)" fill="#2096f3"/></g></g></g><g transform="translate(150 -2600)"><g transform="matrix(1, 0, 0, 1, 965.45, 4093.92)" filter="url(#a)"><rect width="183.044" height="114.947" rx="13.167" transform="translate(456.15 6.49)" fill="#fff" stroke="#002e4e" stroke-miterlimit="10" stroke-width="0.971"/></g><line x2="135.83" transform="translate(1445.208 4130.546)" fill="none" stroke="#a6b7bc" stroke-miterlimit="10" stroke-width="1"/><line x2="102.054" transform="translate(1462.641 4152.337)" fill="none" stroke="#a6b7bc" stroke-miterlimit="10" stroke-width="1"/><rect width="88.253" height="23.97" rx="11" transform="translate(1476 4171.946)" fill="#4bd195"/><text transform="translate(1520 4186.947)" fill="#fff" font-size="9" font-family="Rubik-Regular, Rubik"><tspan x="-15.556" y="0">Browse</tspan></text></g><g transform="matrix(1, 0, 0, 1, 1115.45, 1493.92)" filter="url(#c)"><rect width="176.507" height="61.015" rx="13.167" transform="translate(9.74 439.53)" fill="#fff" stroke="#002e4e" stroke-miterlimit="10" stroke-width="1.48"/></g><text transform="translate(1196.316 1968)" fill="#a6b7bc" font-size="12" font-family="Rubik-Regular, Rubik"><tspan x="0" y="0">Let’s browse</tspan></text><circle cx="20.701" cy="20.701" r="20.701" transform="translate(1137 1943)" fill="#4bd195"/><g transform="translate(1149 1955.133)"><path d="M16.522,15.54l-4.757-4.757a6.633,6.633,0,1,0-.985.985l4.757,4.757a.7.7,0,1,0,.985-.985Zm-9.9-3.689a5.227,5.227,0,1,1,5.227-5.227A5.232,5.232,0,0,1,6.621,11.851Z" transform="translate(0 -0.003)" fill="#fff"/></g></g></svg>