<svg xmlns="http://www.w3.org/2000/svg" xmlns:xlink="http://www.w3.org/1999/xlink" width="611.683" height="526.285" viewBox="0 0 611.683 526.285"><defs><filter id="a" x="409.669" y="0" width="202.015" height="133.918" filterUnits="userSpaceOnUse"><feOffset dy="3" input="SourceAlpha"/><feGaussianBlur stdDeviation="3" result="b"/><feFlood flood-opacity="0.161"/><feComposite operator="in" in2="b"/><feComposite in="SourceGraphic"/></filter><filter id="c" x="0" y="445.79" width="195.987" height="80.495" filterUnits="userSpaceOnUse"><feOffset dy="3" input="SourceAlpha"/><feGaussianBlur stdDeviation="3" result="d"/><feFlood flood-opacity="0.161"/><feComposite operator="in" in2="d"/><feComposite in="SourceGraphic"/></filter></defs><g transform="translate(-121.447 -3885.917)"><g transform="translate(0 404.112)"><circle cx="185.768" cy="185.768" r="185.768" transform="translate(225 3575)" fill="#eff8ff"/><circle cx="234.253" cy="234.253" r="234.253" transform="translate(176.7 3526.888)" fill="none" stroke="#002e4e" stroke-miterlimit="10" stroke-width="1.044" stroke-dasharray="6.262"/><g transform="translate(266 3612.957)"><path d="M288.414,331.881a4.011,4.011,0,0,1-2.837-1.176l-.406-.406a35.153,35.153,0,0,0-49.66,0l-.406.406a4.011,4.011,0,0,1-2.836,1.175h-40.1a8.026,8.026,0,0,0-7.775,10v.01a8.009,8.009,0,0,0,7.775,6.035h40.1a4.01,4.01,0,1,1,0,8.021h-40.1a16.022,16.022,0,0,1-14.825-9.908L138.856,333.2A8.226,8.226,0,0,0,128,341.031v.263a8.272,8.272,0,0,0,3.82,7.024l69.612,44.3a31.18,31.18,0,0,0,24.6,3.836L287.393,380.3a4.009,4.009,0,0,1,1.021-.132h16.041V331.881Z" transform="translate(-47.876 -140.13)" fill="#ffe35a"/><path d="M92.711,126.533c.117.022.232.05.346.082a30.4,30.4,0,0,0,19.64-2.559l6.7-3.341a11.408,11.408,0,0,1,2.4-1.2l.029-.009,3.086-1.539a4.013,4.013,0,0,1,2.275-.393l32.569,3.974a8.566,8.566,0,0,0,2.841-16.878l-38.739-8.341a4.01,4.01,0,1,1,1.688-7.841l8.422,1.814-2.557-6.48a4.011,4.011,0,1,1,7.461-2.945l4.521,11.454,5.742,1.237.844-3.921a4.01,4.01,0,0,1,7.841,1.688l-.844,3.92,7.307,1.574A16.653,16.653,0,0,1,168.6,98.4l.765-3.557a14.1,14.1,0,0,0-3.123-12.16L151.395,65.59A14,14,0,0,0,140.8,60.758c-.09,0-.179,0-.269,0l-61.59,1.174a4.19,4.19,0,0,1-1.866-.421L32,39.043V90.129l29.7,13.419a4,4,0,0,1,1.457,1.12l6.622,8.121a39.465,39.465,0,0,0,22.2,13.594c.24.053.485.1.73.149Z" transform="translate(0 0)" fill="#ffe35a"/><path d="M270.493,213.765l-12.638-1.54a10.017,10.017,0,0,0,1.083,12.892l26.138,26.138,26.138-26.138a10.027,10.027,0,1,0-14.18-14.18l-9.124,9.124a4.01,4.01,0,0,1-5.672,0l-6.482-6.484A16.786,16.786,0,0,1,270.493,213.765Z" transform="translate(-111.71 -84.26)" fill="#ffe35a"/><path d="M189.844,227.671l1.016-.173a12.972,12.972,0,0,1-.407-2.382,38.316,38.316,0,0,1-4.918,1.662,6.035,6.035,0,0,0,4.31.893Z" transform="translate(-76.568 -92.796)" fill="#ffe35a"/><path d="M216.815,211.868l-3.846,1.919a4.431,4.431,0,0,0-1.42,2.083,5.055,5.055,0,0,0,.528,4.38,4.867,4.867,0,0,0,4.906,2.159l8.718-1.483c-.017-.32-.027-.646-.027-.971a18.041,18.041,0,0,1,1.351-6.842Z" transform="translate(-89.404 -86.189)" fill="#ffe35a"/></g></g><g transform="translate(-881 -208)"><g transform="matrix(1, 0, 0, 1, 1002.45, 4093.92)" filter="url(#a)"><rect width="183.044" height="114.947" rx="13.167" transform="translate(419.15 6.49)" fill="#fff" stroke="#002e4e" stroke-miterlimit="10" stroke-width="0.971"/></g><line x2="135.83" transform="translate(1445.208 4130.546)" fill="none" stroke="#a6b7bc" stroke-miterlimit="10" stroke-width="1"/><line x2="102.054" transform="translate(1462.641 4152.337)" fill="none" stroke="#a6b7bc" stroke-miterlimit="10" stroke-width="1"/><rect width="88.253" height="23.97" rx="11" transform="translate(1476 4171.946)" fill="#4bd195"/><text transform="translate(1520 4186.947)" fill="#fff" font-size="9" font-family="Rubik-Regular, Rubik"><tspan x="-15.151" y="0">Donate</tspan></text></g><g transform="matrix(1, 0, 0, 1, 121.45, 3885.92)" filter="url(#c)"><path d="M13.167,0H163.34a13.167,13.167,0,0,1,13.167,13.167V47.848A13.167,13.167,0,0,1,163.34,61.015H13.167A13.167,13.167,0,0,1,0,47.848V13.167A13.167,13.167,0,0,1,13.167,0Z" transform="translate(9.74 452.53)" fill="#fff" stroke="#002e4e" stroke-width="1.48"/></g><text transform="translate(200.316 4373)" fill="#a6b7bc" font-size="12" font-family="Rubik-Regular, Rubik"><tspan x="0" y="0">Help each other</tspan></text><circle cx="20.701" cy="20.701" r="20.701" transform="translate(143 4348)" fill="#4bd195"/><text transform="translate(157 4376)" fill="#fff" font-size="21" font-family="Rubik-Regular, Rubik"><tspan x="0" y="0">$</tspan></text></g></svg>