<svg xmlns="http://www.w3.org/2000/svg" width="208.24" height="168.167" viewBox="0 0 208.24 168.167"><g transform="translate(-482.948 -662.594)"><g transform="translate(483 677)" fill="none" stroke="#707070" stroke-width="1"><rect width="208" height="153" stroke="none"/><rect x="0.5" y="0.5" width="207" height="152" fill="none"/></g><g transform="translate(195)"><path d="M69.513,0C88.19,0,92.056,17.743,92.066,24.259c0,6.21-1.212,7.158-1.169,13.452.028,4.781,1.415,8.129,1.287,10.845-.736,14.145-19.86,18.224-25.32,18.3S37.63,62.338,37.63,51.343c0-7.671,4.88-19.94,4.748-28.46C42.086,5.187,56.882,0,69.513,0Z" transform="translate(322.634 699.42)" fill-rule="evenodd"/><path d="M78.078,196.314H111.2l4.484-34.147L109.7,136l-11.316-7.6L87.037,124.86,66.55,127.045Z" transform="translate(307.35 633.433)" fill="#f7d167" fill-rule="evenodd"/><path d="M37.9,123.567c-7.742.109-30.86,4.427-34.236,8.809-2.565,3.324-4.324,33.4,1.7,34.864a11.07,11.07,0,0,0,1.207.228c-.363.922-3.833,22.268-2.952,24.044s3.2,4.464,6.549,4.367c12.971-.4,36.8-9.161,39.168-10.589.363-2.707,1.367-12.877,1.367-12.877L48.64,142.238,36.82,125.61S45.641,123.458,37.9,123.567Z" transform="translate(341.838 634.118)" fill="#fff" fill-rule="evenodd"/><path d="M114.71,122.8c13.311.906,32.1,6.557,34.519,9.131,2.037,2.163,1,30.169,1,30.169s-7.544,5.666-4.145,13.816c3.121,7.517,4.046,17.665.773,19.562-5.394-1.495-12.33-7.486-13.579-8.963s-1.575-9.83-2.537-11.617-5.267-33.412-5.267-33.412S123.471,128.712,114.71,122.8Z" transform="translate(281.898 634.522)" fill="#fff" fill-rule="evenodd"/><path d="M43.64,133.22c6.7,12.217,20.275,26.141,27.272,31.454" transform="translate(319.458 629.015)" fill="none" stroke="#c9c9c9" stroke-linecap="round" stroke-linejoin="round" stroke-width="2"/><path d="M129,125.77c5.965,8.044,7.5,21.713,2.829,35.594" transform="translate(274.346 632.952)" fill="none" stroke="#c9c9c9" stroke-linecap="round" stroke-linejoin="round" stroke-width="2"/><path d="M58,199.649a5.309,5.309,0,1,1,5.3,5.309A5.309,5.309,0,0,1,58,199.649Z" transform="translate(311.869 596.714)" fill="none" stroke="#353823" stroke-linecap="round" stroke-linejoin="round" stroke-width="3.41"/><path d="M63.48,202.561a2.711,2.711,0,1,1,2.711,2.711A2.711,2.711,0,0,1,63.48,202.561Z" transform="translate(308.973 593.802)" fill="#353823" fill-rule="evenodd"/><path d="M63.633,155.774C60.049,142.614,59.818,124.3,69.069,121" transform="translate(310.107 635.473)" fill="none" stroke="#353823" stroke-linecap="round" stroke-linejoin="round" stroke-width="3.41"/><path d="M112,116.25c5.276,2.235,10.3,12.542,11.481,21.369" transform="translate(283.33 637.983)" fill="none" stroke="#353823" stroke-linecap="round" stroke-linejoin="round" stroke-width="3.41"/><path d="M123.686,178.019c-1.688-8.157.858-15.56,5.686-16.578s10.114,4.8,11.788,12.957-.858,15.56-5.686,16.574S125.374,186.162,123.686,178.019Z" transform="translate(277.43 614.162)" fill="none" stroke="#353823" stroke-linecap="round" stroke-linejoin="round" stroke-width="3.41"/><path d="M52.347,169.52,50.31,209.179" transform="translate(315.933 609.831)" fill="none" stroke="#c9c9c9" stroke-linecap="round" stroke-linejoin="round" stroke-width="2"/><path d="M42.47,172l5.3,7.384" transform="translate(320.076 608.52)" fill="none" stroke="#c9c9c9" stroke-linecap="round" stroke-linejoin="round" stroke-width="2"/><path d="M57.18,246.94l-20.36,4.871" transform="translate(323.062 568.915)" fill="#606060" stroke="#c9c9c9" stroke-linecap="round" stroke-linejoin="round" stroke-width="2" fill-rule="evenodd"/><path d="M39,245.72l5.187,3.961" transform="translate(321.91 569.56)" fill="none" stroke="#c9c9c9" stroke-linecap="round" stroke-linejoin="round" stroke-width="2"/><path d="M39.031,199.267c-8.563,2.817-28.9,6.184-32.746,3.395-5.139-3.734-6.6-42.269-4.022-52.491,1.5-5.949,9.1-9.779,13.061-11.321" transform="translate(341.984 626.039)" fill="none" stroke="#c9c9c9" stroke-linecap="round" stroke-linejoin="round" stroke-width="2"/><path d="M64.634,261.7c-1.544-1.461-2.134-8.745-1.389-10.931" transform="translate(309.266 566.891)" fill="none" stroke="#c9c9c9" stroke-linecap="round" stroke-linejoin="round" stroke-width="2"/><path d="M69.23,255.769a1.24,1.24,0,1,1,.365.879A1.245,1.245,0,0,1,69.23,255.769Z" transform="translate(305.934 564.909)" fill="#c9c9c9" fill-rule="evenodd"/><path d="M104.345,190.52H145c2.466,0,3.937,1.184,3.3,2.644l-15.7,35.46c-.785,1.528-3.051,2.587-5.658,2.644H86.315c-2.461,0-3.937-1.184-3.3-2.644l15.692-35.46C99.487,191.639,101.745,190.581,104.345,190.52Z" transform="translate(298.727 598.732)" fill="#aadaf1" fill-rule="evenodd"/><path d="M147.8,184.214h23.076a1.523,1.523,0,0,1,1.551,2.056l-1.122,3.923a2.989,2.989,0,0,1-2.725,2.056H145.5a1.528,1.528,0,0,1-1.551-2.056l1.122-3.923A3,3,0,0,1,147.8,184.214Z" transform="translate(266.494 602.068)" fill="#3b4161" fill-rule="evenodd"/><path d="M79.289,235.3a28.17,28.17,0,0,1,5.656-2.353c2.844-2.233,4.934-11.051,5.689-11.609s3.28-.2,3.355.639c.328,3.059.155,6.631-2.69,9.823,8.276-5.014,8.9-7.238,11.181-5.559s3.1,9.868,1.143,13.252c-5.38,9.341-19.531,10.6-23.861,10.667A43.609,43.609,0,0,1,79.289,235.3Z" transform="translate(298.993 579.587)" fill="#f77f89" fill-rule="evenodd"/><path d="M124.185,238.09l-7.285,5.833" transform="translate(276.74 571.592)" fill="none" stroke="#a7464f" stroke-linecap="round" stroke-linejoin="round" stroke-width="3.41"/><path d="M123.631,250.89l-9.251,7.356" transform="translate(278.072 564.827)" fill="none" stroke="#a7464f" stroke-linecap="round" stroke-linejoin="round" stroke-width="3.41"/><path d="M215.631,234.255a27.186,27.186,0,0,1,2.2-10.373c.632-1.49.67-3.942-1.551-3.942-2.527,0-5.908,5.073-4.244,11.113S215.8,237,215.631,234.255Z" transform="translate(230.698 583.184)" fill="#f77f89" fill-rule="evenodd"/><path d="M200.833,226.09c2.009,0,8.115,12.08,8.072,13.546s-.679,3.7-1.627,3.583-8.879-10.208-8.879-13.636C198.4,227.6,199.367,226.09,200.833,226.09Z" transform="translate(237.668 579.934)" fill="#f77f89" fill-rule="evenodd"/><path d="M195.5,240.81c2.5,0,9.1,9.628,9.152,10.732s-1.287,2.117-2.391,2.164-8.992-6.422-8.992-9.43C193.256,242.437,194.085,240.81,195.5,240.81Z" transform="translate(240.38 572.155)" fill="#f77f89" fill-rule="evenodd"/><path d="M200.4,269.284c1.084-.045,4.1-2.406,4.1-4.263,0-.731-2.108-2.621-3.164-2.563s-3.211,3.611-3.169,4.515A2.387,2.387,0,0,0,200.4,269.284Z" transform="translate(237.791 560.714)" fill="#f77f89" fill-rule="evenodd"/><path d="M211.6,235.56c2.164,3.6,4.3,8.214,4.281,9.081" transform="translate(230.692 574.929)" fill="none" stroke="#a7464f" stroke-linecap="round" stroke-linejoin="round" stroke-width="3.41"/><path d="M201.21,242.31c2.98,2.244,7.587,9.1,7.624,10.024" transform="translate(236.184 571.362)" fill="none" stroke="#a94b53" stroke-linecap="round" stroke-linejoin="round" stroke-width="3.41"/><path d="M63.06,36.563a19.3,19.3,0,1,1,19.3,19.544A19.436,19.436,0,0,1,63.06,36.563Z" transform="translate(309.194 690.436)" fill="#f77f89" fill-rule="evenodd"/><path d="M97.882,59.179c.207-1.245.943-2.164,1.679-2.042s1.141,1.226.943,2.471-.943,2.164-1.679,2.046S97.679,60.429,97.882,59.179Z" transform="translate(290.818 669.229)" fill="#b5545c" fill-rule="evenodd"/><path d="M128.695,61.308c.193-1.165.891-2.023,1.565-1.91s1.066,1.146.877,2.31-.9,2.018-1.57,1.886S128.5,62.473,128.695,61.308Z" transform="translate(274.533 668.034)" fill="#b5545c" fill-rule="evenodd"/><path d="M69.266,76.038c1.146,3.187,4.027,19.752,3.3,25.768,3.018,4.574,16.465,3.3,20.473-.571A26.383,26.383,0,0,1,91.7,86.977C92.393,82.582,68.12,72.86,69.266,76.038Z" transform="translate(305.936 659.566)" fill="#f77f89" fill-rule="evenodd"/><path d="M88.285,13.34c.165,4.644-4.074,9.081-15.6,11.283,1.264,3.258,1.367,8.157-4.927,9.039-7.341,1.018-7.94-8.36-7.94-8.36l11-12.99S88.125,8.686,88.285,13.34Z" transform="translate(310.907 693.624)" fill-rule="evenodd"/><path d="M112.814,8.4c-.472,4.126,4.277,14.145,15.272,14.419C135.9,22.816,113.272,4.267,112.814,8.4Z" transform="translate(282.917 695.299)" fill-rule="evenodd"/><path d="M85.409,82.772c-1.056-1.334.472-7.417,2.136-10.2,2.009-1.183,9.133-.2,12.806-3.357,1.08-.943,1.66-.245,2.5.787,1.476,1.811,5.913,2.749,7.572,3.772.245,2.64-2.178,8.685-3.225,10.038C105.557,85.955,90.558,86.148,85.409,82.772Z" transform="translate(297.567 663.077)" fill="#fff" fill-rule="evenodd"/><path d="M85.028,65.987c-.971-1.622-5.215-8.879-6.568-10.717" transform="translate(301.056 670.211)" fill="none" stroke="#fff" stroke-linecap="round" stroke-linejoin="round" stroke-width="3.41"/><path d="M75.827,84.205c-2.871,0-9.7-8.982-10.477-12" transform="translate(307.984 661.258)" fill="none" stroke="#fff" stroke-linecap="round" stroke-linejoin="round" stroke-width="3.41"/><path d="M56.06,54.845a6.285,6.285,0,1,1,6.285,6.285,6.285,6.285,0,0,1-6.285-6.285Z" transform="translate(312.894 673.757)" fill="#f77f89" fill-rule="evenodd"/><path d="M172.449,154.213c.368-10.675-10.873-15.56-15.5-17.653" transform="translate(259.574 627.25)" fill="none" stroke="#c9c9c9" stroke-linecap="round" stroke-linejoin="round" stroke-width="2"/></g><path d="M8,0H200.241a8,8,0,0,1,8,8v9.974a0,0,0,0,1,0,0H0a0,0,0,0,1,0,0V8A8,8,0,0,1,8,0Z" transform="translate(482.948 662.594)" fill="#002e4e"/><circle cx="3.403" cy="3.403" r="3.403" transform="translate(490.292 668.581)" fill="#dd4e41"/><circle cx="3.403" cy="3.403" r="3.403" transform="translate(500.292 668.581)" fill="#f8ce5f"/><circle cx="3.403" cy="3.403" r="3.403" transform="translate(510.292 668.581)" fill="#4b9e65"/></g></svg>