<svg xmlns="http://www.w3.org/2000/svg" width="270" height="220" viewBox="0 0 270 220"><g transform="translate(-60 -3601)" opacity="0.228"><circle cx="10" cy="10" r="10" transform="translate(60 3601)" fill="#e0e4e7"/><circle cx="10" cy="10" r="10" transform="translate(60 3601)" fill="#e0e4e7"/><circle cx="10" cy="10" r="10" transform="translate(110 3601)" fill="#e0e4e7"/><circle cx="10" cy="10" r="10" transform="translate(160 3601)" fill="#e0e4e7"/><circle cx="10" cy="10" r="10" transform="translate(210 3601)" fill="#e0e4e7"/><circle cx="10" cy="10" r="10" transform="translate(260 3601)" fill="#e0e4e7"/><circle cx="10" cy="10" r="10" transform="translate(310 3601)" fill="#e0e4e7"/><g transform="translate(0 40)"><circle cx="10" cy="10" r="10" transform="translate(60 3601)" fill="#e0e4e7"/><circle cx="10" cy="10" r="10" transform="translate(110 3601)" fill="#e0e4e7"/><circle cx="10" cy="10" r="10" transform="translate(160 3601)" fill="#e0e4e7"/><circle cx="10" cy="10" r="10" transform="translate(210 3601)" fill="#e0e4e7"/><circle cx="10" cy="10" r="10" transform="translate(260 3601)" fill="#e0e4e7"/><circle cx="10" cy="10" r="10" transform="translate(310 3601)" fill="#e0e4e7"/></g><g transform="translate(0 80)"><circle cx="10" cy="10" r="10" transform="translate(60 3601)" fill="#e0e4e7"/><circle cx="10" cy="10" r="10" transform="translate(110 3601)" fill="#e0e4e7"/><circle cx="10" cy="10" r="10" transform="translate(160 3601)" fill="#e0e4e7"/><circle cx="10" cy="10" r="10" transform="translate(210 3601)" fill="#e0e4e7"/><circle cx="10" cy="10" r="10" transform="translate(260 3601)" fill="#e0e4e7"/><circle cx="10" cy="10" r="10" transform="translate(310 3601)" fill="#e0e4e7"/></g><g transform="translate(0 120)"><circle cx="10" cy="10" r="10" transform="translate(60 3601)" fill="#e0e4e7"/><circle cx="10" cy="10" r="10" transform="translate(110 3601)" fill="#e0e4e7"/><circle cx="10" cy="10" r="10" transform="translate(160 3601)" fill="#e0e4e7"/><circle cx="10" cy="10" r="10" transform="translate(210 3601)" fill="#e0e4e7"/><circle cx="10" cy="10" r="10" transform="translate(260 3601)" fill="#e0e4e7"/><circle cx="10" cy="10" r="10" transform="translate(310 3601)" fill="#e0e4e7"/></g><g transform="translate(0 160)"><circle cx="10" cy="10" r="10" transform="translate(60 3601)" fill="#e0e4e7"/><circle cx="10" cy="10" r="10" transform="translate(110 3601)" fill="#e0e4e7"/><circle cx="10" cy="10" r="10" transform="translate(160 3601)" fill="#e0e4e7"/><circle cx="10" cy="10" r="10" transform="translate(210 3601)" fill="#e0e4e7"/><circle cx="10" cy="10" r="10" transform="translate(260 3601)" fill="#e0e4e7"/><circle cx="10" cy="10" r="10" transform="translate(310 3601)" fill="#e0e4e7"/></g><g transform="translate(0 200)"><circle cx="10" cy="10" r="10" transform="translate(60 3601)" fill="#e0e4e7"/><circle cx="10" cy="10" r="10" transform="translate(110 3601)" fill="#e0e4e7"/><circle cx="10" cy="10" r="10" transform="translate(160 3601)" fill="#e0e4e7"/><circle cx="10" cy="10" r="10" transform="translate(210 3601)" fill="#e0e4e7"/><circle cx="10" cy="10" r="10" transform="translate(260 3601)" fill="#e0e4e7"/><circle cx="10" cy="10" r="10" transform="translate(310 3601)" fill="#e0e4e7"/></g></g></svg>