<svg xmlns="http://www.w3.org/2000/svg" xmlns:xlink="http://www.w3.org/1999/xlink" width="693.318" height="533.11" viewBox="0 0 693.318 533.11"><defs><filter id="a" x="0" y="0" width="202.015" height="133.918" filterUnits="userSpaceOnUse"><feOffset dy="3" input="SourceAlpha"/><feGaussianBlur stdDeviation="3" result="b"/><feFlood flood-opacity="0.161"/><feComposite operator="in" in2="b"/><feComposite in="SourceGraphic"/></filter><filter id="c" x="497.331" y="249.79" width="195.987" height="80.495" filterUnits="userSpaceOnUse"><feOffset dy="3" input="SourceAlpha"/><feGaussianBlur stdDeviation="3" result="d"/><feFlood flood-opacity="0.161"/><feComposite operator="in" in2="d"/><feComposite in="SourceGraphic"/></filter></defs><g transform="translate(-1105.116 -4734.917)"><g transform="translate(0 524.112)"><circle cx="185.768" cy="185.768" r="185.768" transform="translate(1226 4323)" fill="#eff8ff"/><circle cx="234.253" cy="234.253" r="234.253" transform="translate(1177.7 4274.888)" fill="none" stroke="#002e4e" stroke-miterlimit="10" stroke-width="1.044" stroke-dasharray="6.262"/><g transform="translate(1299 4379.003)"><path d="M306.329,155.551l-56.146-37.43a4.679,4.679,0,0,0-6.055.749L150.552,221.8a4.678,4.678,0,0,0,1.189,7.233l84.219,46.788a4.679,4.679,0,0,0,6.316-1.741l65.5-112.292A4.679,4.679,0,0,0,306.329,155.551Z" transform="translate(-83.832 -47.906)" fill="#b0bec5"/><path d="M163.758,32H4.679A4.679,4.679,0,0,0,0,36.676V177.04a4.679,4.679,0,0,0,8.609,2.536l38.974-60.628,23.974,23.974a4.482,4.482,0,0,0,3.93,1.329,4.679,4.679,0,0,0,3.444-2.311l33.089-57.914,47.555,95.111a4.678,4.678,0,0,0,4.183,2.583,4.3,4.3,0,0,0,1.076-.131,4.679,4.679,0,0,0,3.6-4.548V36.676A4.679,4.679,0,0,0,163.758,32Z" transform="translate(0 0)" fill="#cfd8dc"/><circle cx="23.394" cy="23.394" r="23.394" transform="translate(28.073 50.712)" fill="#ffc107"/><path d="M167.942,222.84,116.476,119.906a4.679,4.679,0,0,0-4.061-2.583,4.529,4.529,0,0,0-4.192,2.358L73.842,179.87,50.1,156.12a4.679,4.679,0,0,0-7.243.777L.749,222.4a4.679,4.679,0,0,0,3.93,7.215H163.76a4.679,4.679,0,0,0,4.183-6.775Z" transform="translate(-0.001 -47.896)" fill="#00bcd4"/></g></g><g transform="translate(-307 641)"><g transform="matrix(1, 0, 0, 1, 1412.12, 4093.92)" filter="url(#a)"><rect width="183.044" height="114.947" rx="13.167" transform="translate(9.49 6.49)" fill="#fff" stroke="#002e4e" stroke-miterlimit="10" stroke-width="0.971"/></g><line x2="135.83" transform="translate(1445.208 4130.546)" fill="none" stroke="#a6b7bc" stroke-miterlimit="10" stroke-width="1"/><line x2="102.054" transform="translate(1462.641 4152.337)" fill="none" stroke="#a6b7bc" stroke-miterlimit="10" stroke-width="1"/><rect width="88.253" height="23.97" rx="11" transform="translate(1476 4171.946)" fill="#4bd195"/><text transform="translate(1520 4186.947)" fill="#fff" font-size="9" font-family="Rubik-Regular, Rubik"><tspan x="-15.719" y="0">Choose</tspan></text></g><g transform="matrix(1, 0, 0, 1, 1105.12, 4734.92)" filter="url(#c)"><rect width="176.507" height="61.015" rx="13.167" transform="translate(507.07 256.53)" fill="#fff" stroke="#002e4e" stroke-miterlimit="10" stroke-width="1.48"/></g><text transform="translate(1674.316 5025.947)" fill="#a6b7bc" font-size="12" font-family="Rubik-Regular, Rubik"><tspan x="0" y="0">Upload Image</tspan></text><circle cx="20.701" cy="20.701" r="20.701" transform="translate(1624 5001)" fill="#4bd195"/><g transform="translate(1635 4986.597)"><g transform="translate(0 26.403)"><g transform="translate(0 0)"><path d="M10.482,242.2a2.559,2.559,0,0,1-1.606-.6l-2.967-2.613a1.307,1.307,0,0,0-1.688-.082L0,242.013v2.014a.98.98,0,0,0,.924,1.033c.028,0,.056,0,.084,0H15.953a1.146,1.146,0,0,0,1.2-1.034v-5.281l-5.363,3.1A2.478,2.478,0,0,1,10.482,242.2Z" transform="translate(0 -227.581)" fill="#fff"/><circle cx="1.198" cy="1.198" r="1.198" transform="translate(9.066 6.946)" fill="#fff"/><path d="M73.5,28.531a1.007,1.007,0,0,0-.735-.408L57.925,26.407a1.084,1.084,0,0,0-1.225.926l-.245,2.123H69.467a2.341,2.341,0,0,1,2.287,2.259v9.609c0-.054.245-.109.354-.218a.925.925,0,0,0,.354-.735L73.741,29.32A1.062,1.062,0,0,0,73.5,28.531Z" transform="translate(-53.513 -26.403)" fill="#fff"/><path d="M15.982,105.9H1.037A1.1,1.1,0,0,0,.03,107.07v7.758l3.593-2.613a2.4,2.4,0,0,1,3.022.136l2.994,2.613a1.388,1.388,0,0,0,1.606.136l5.934-3.457V107.07A1.252,1.252,0,0,0,15.982,105.9Zm-5.689,6.288a2.287,2.287,0,1,1,2.287-2.287A2.287,2.287,0,0,1,10.293,112.187Z" transform="translate(-0.028 -101.757)" fill="#fff"/></g></g></g></g></svg>