<svg xmlns="http://www.w3.org/2000/svg" width="439" height="226.5" viewBox="0 0 439 226.5"><g transform="translate(-1457 -210.5)"><g transform="translate(1503.785 320)"><path d="M212.386,193.631a4.28,4.28,0,1,0-4.28,4.28A4.284,4.284,0,0,0,212.386,193.631Zm-4.28,1.819a1.819,1.819,0,1,1,1.819-1.819A1.821,1.821,0,0,1,208.107,195.449Z" transform="translate(-107.876 -173.818)" fill="#ef7f65"/><path d="M114.15,34.81V23.956l-4.237-2.7a25.462,25.462,0,0,0-8-19.665L100.231,0,98.544,1.588a25.462,25.462,0,0,0-8,19.665l-4.237,2.7V34.81l7.383-2.32q.461.835.986,1.636v5.112h2.461V35.273H99v1.907h2.461V35.273h1.859v3.965h2.461V34.126q.525-.8.986-1.636Zm-2.461-9.505v6.152l-3.828-1.2A25.537,25.537,0,0,0,109.647,24ZM100.23,3.38a22.8,22.8,0,0,1,5.175,7.275H95.056A22.8,22.8,0,0,1,100.23,3.38ZM88.772,31.458V25.305L90.814,24A25.529,25.529,0,0,0,92.6,30.255ZM99,30.557v2.256H96.759a23.118,23.118,0,0,1-2.645-19.7h12.232a23.117,23.117,0,0,1-2.645,19.7h-2.241V30.557Z" transform="translate(0 0)" fill="#ef7f65"/><path d="M241,483.5h2.461v2.338H241Z" transform="translate(-141.998 -443.833)" fill="#ef7f65"/></g><path d="M32,37.518a2.693,2.693,0,0,0,2.69,2.69h.362a2.688,2.688,0,0,0,2.328,4.035h.362a2.688,2.688,0,0,0,2.328,4.035h.362a2.688,2.688,0,0,0,2.328,4.035H44.1v.672a3.366,3.366,0,0,0,3.362,3.362h1.345a3.366,3.366,0,0,0,3.362-3.362v-.672h1.345a2.688,2.688,0,0,0,2.328-4.035h.361a2.688,2.688,0,0,0,2.328-4.035H58.9a2.688,2.688,0,0,0,2.328-4.035h.361a2.69,2.69,0,0,0,0-5.379h-.361A2.688,2.688,0,0,0,58.9,30.793h-.361a2.68,2.68,0,0,0,.251-2.106,3.346,3.346,0,0,0,2.127.761h4.035a3.368,3.368,0,0,0,3.295-2.69h.74a.672.672,0,0,0,0-1.345h-.74A3.37,3.37,0,0,0,66.829,23.3,2.688,2.688,0,0,0,63.6,19.051a2.688,2.688,0,0,0-3.6,3.8,3.361,3.361,0,0,0-2.246,4.407,2.674,2.674,0,0,0-1.555-.5h-.361a2.688,2.688,0,0,0-2.328-4.035H52.173v-.672a3.366,3.366,0,0,0-3.362-3.362V16.672a.672.672,0,0,0-1.345,0V18.69A3.366,3.366,0,0,0,44.1,22.052v.672H42.759a2.688,2.688,0,0,0-2.328,4.035h-.362a2.688,2.688,0,0,0-2.328,4.035h-.362a2.688,2.688,0,0,0-2.328,4.035H34.69A2.693,2.693,0,0,0,32,37.518ZM66.966,26.086a2.021,2.021,0,0,1-1.345,1.9v-3.8a2.021,2.021,0,0,1,1.345,1.9Zm-2.017-6.052A1.345,1.345,0,1,1,63.6,21.379,1.345,1.345,0,0,1,64.949,20.035Zm-2.017,4.035h1.345V28.1H62.932Zm-.672-4.035a1.347,1.347,0,0,1,.337.044,2.681,2.681,0,0,0,.025,2.646h-.362a1.345,1.345,0,0,1,0-2.69Zm-3.316,5.623a.674.674,0,1,0,.448-.892,2.013,2.013,0,0,1,1.523-.7h.672V28.1h-.672a2.016,2.016,0,0,1-1.971-2.446ZM37.379,42.9a1.345,1.345,0,0,1,0-2.69h6.052V42.9Zm2.69,4.035a1.345,1.345,0,1,1,0-2.69h3.362v2.69Zm10.759,6.052A2.02,2.02,0,0,1,48.811,55H47.466a2.02,2.02,0,0,1-2.017-2.017v-.672h5.379Zm2.69-2.017H42.759a1.345,1.345,0,0,1,0-2.69H53.518a1.345,1.345,0,1,1,0,2.69Zm-8.742-4.035V38.19a3.362,3.362,0,1,1,6.724,0v8.742Zm11.431,0H52.845v-2.69h3.362a1.345,1.345,0,1,1,0,2.69ZM58.9,42.9H52.845v-2.69H58.9a1.345,1.345,0,0,1,0,2.69Zm2.69-6.724a1.345,1.345,0,1,1,0,2.69H52.845V38.19a4.679,4.679,0,0,0-.455-2.017ZM45.449,22.052a2.02,2.02,0,0,1,2.017-2.017h1.345a2.02,2.02,0,0,1,2.017,2.017v.672H45.449Zm-2.69,2.017H53.518a1.345,1.345,0,1,1,0,2.69H42.759a1.345,1.345,0,0,1,0-2.69ZM40.069,28.1H56.207a1.345,1.345,0,1,1,0,2.69H40.069a1.345,1.345,0,1,1,0-2.69Zm-2.69,4.035H58.9a1.345,1.345,0,0,1,0,2.69H51.428a4.7,4.7,0,0,0-6.579,0H37.379a1.345,1.345,0,0,1,0-2.69Zm6.507,4.035a4.679,4.679,0,0,0-.455,2.017v.672H34.69a1.345,1.345,0,0,1,0-2.69Z" transform="translate(1425 335.655)" fill="#80e0dd"/><g transform="translate(1832.475 210.5)"><g transform="translate(41.232 0)"><g transform="translate(0 0)"><path d="M55.239,3.414C54.524,2.362,53.893,1.4,53.3.512a1.28,1.28,0,0,0-.336-.336,1.1,1.1,0,0,0-1.514.336c-.547.883-1.178,1.809-1.935,2.9C46.2,8.293,41.232,15.654,41.232,19.86a11.1,11.1,0,0,0,3.281,7.866,11.238,11.238,0,0,0,7.866,3.239A11.2,11.2,0,0,0,63.525,19.818C63.525,15.612,58.562,8.293,55.239,3.414ZM58.73,26.17a8.9,8.9,0,0,1-6.351,2.608,9.073,9.073,0,0,1-6.351-2.608,8.9,8.9,0,0,1-2.608-6.351c0-3.533,4.753-10.558,7.908-15.227.379-.547.715-1.094,1.052-1.556.337.463.673,1.009,1.052,1.556,3.155,4.711,7.908,11.693,7.908,15.227A9.073,9.073,0,0,1,58.73,26.17Z" transform="translate(-41.232 0)" fill="#80e0dd"/></g></g><g transform="translate(54.473 19.059)"><g transform="translate(0)"><path d="M171.577,181.242a1.078,1.078,0,0,0-1.136,1.01,5.414,5.414,0,0,1-.8,2.566,5.112,5.112,0,0,1-1.935,1.851A1.111,1.111,0,0,0,168.8,188.6,7.289,7.289,0,0,0,171.493,186a7.158,7.158,0,0,0,1.094-3.617A1.078,1.078,0,0,0,171.577,181.242Z" transform="translate(-167.152 -181.24)" fill="#80e0dd"/></g></g></g><path d="M81.559,1.053A.969.969,0,0,0,80.733.3a32.25,32.25,0,0,0-10.979.35A21.375,21.375,0,0,0,59.09,6.413a11.584,11.584,0,0,0,1.387,17.556V32.1a.969.969,0,1,0,1.938,0V25.109a11.6,11.6,0,0,0,13.046-2.325c3.413-3.412,2.706-8.114,2.473-10.753-.355-4.028-.662-7.507,3.2-9.948a.969.969,0,0,0,.427-1.03Zm-21.1,6.73A20.315,20.315,0,0,1,73.694,2.024,22.8,22.8,0,0,0,67.2,6.848a24.457,24.457,0,0,0-6.623,14.68A9.655,9.655,0,0,1,60.461,7.783ZM76,12.2c.3,3.45.591,6.708-1.914,9.213a9.654,9.654,0,0,1-11.659,1.52A22.546,22.546,0,0,1,68.608,8.181a20.946,20.946,0,0,1,5.92-4.405,16.132,16.132,0,0,1,3.108-1.151,8.275,8.275,0,0,0-1.559,3.364A20.665,20.665,0,0,0,76,12.2Z" transform="translate(1632.373 223.79)" fill="#b1ea8c"/><g transform="translate(1765 304)"><path d="M40,13.723c0-1.8-1.079-4.507-3.3-8.282C35.121,2.76,33.569.582,33.5.491a1.172,1.172,0,0,0-1.907,0,64.469,64.469,0,0,0-5.094,8.5C23.649,4.276,20.981.531,20.952.491a1.172,1.172,0,0,0-1.907,0c-.032.044-3.2,4.5-6.332,9.814q-.5.855-.965,1.673C10.134,9.2,8.485,6.884,8.4,6.766a1.172,1.172,0,0,0-1.907,0c-.065.091-1.617,2.27-3.194,4.951C1.079,15.491,0,18.2,0,20a7.459,7.459,0,0,0,6.319,7.362,13.723,13.723,0,0,0,27.4-1.086,15.95,15.95,0,0,0-1.083-5.1A7.456,7.456,0,0,0,40,13.723ZM2.344,20c0-.758.386-2.687,2.968-7.079.774-1.316,1.553-2.524,2.136-3.4.794,1.192,1.957,3.007,2.975,4.878-2.34,4.436-3.7,7.986-4.053,10.588A5.113,5.113,0,0,1,2.344,20ZM20,37.654a11.392,11.392,0,0,1-11.38-11.38c0-2,1.059-6.186,6.105-14.767C16.77,8.029,18.835,4.927,20,3.226c1.161,1.7,3.221,4.793,5.266,8.268,5.053,8.59,6.114,12.78,6.114,14.781A11.392,11.392,0,0,1,20,37.654ZM32.55,18.827a5.132,5.132,0,0,1-.867-.073,74.878,74.878,0,0,0-3.7-7.252A47.732,47.732,0,0,1,32.55,3.246c.58.87,1.356,2.072,2.127,3.383,2.589,4.4,2.976,6.334,2.976,7.094A5.11,5.11,0,0,1,32.55,18.827Z" transform="translate(0 0)" fill="#ffe35a"/></g><g transform="translate(1631.799 410)"><path d="M72.423,6.148C70.221,2.183,67.5,0,64.762,0S59.3,2.183,57.1,6.148a23.1,23.1,0,0,0-2.986,10.206,10.646,10.646,0,1,0,21.292,0A23.1,23.1,0,0,0,72.423,6.148Zm-15.4,3.961c.029,0,.06,0,.095,0a1.028,1.028,0,0,1,.767.346,2.583,2.583,0,0,0,3.56,0,1.024,1.024,0,0,1,1.535,0,2.583,2.583,0,0,0,3.56,0,1.024,1.024,0,0,1,1.535,0,2.583,2.583,0,0,0,3.56,0A1.028,1.028,0,0,1,72.4,10.1c.035,0,.066,0,.095,0a19.078,19.078,0,0,1,1.324,6.22A2.386,2.386,0,0,0,72.4,15.9a2.546,2.546,0,0,0-1.78.711,1.024,1.024,0,0,1-1.535,0,2.583,2.583,0,0,0-3.56,0,1.024,1.024,0,0,1-1.535,0,2.583,2.583,0,0,0-3.56,0,1.024,1.024,0,0,1-1.535,0,2.546,2.546,0,0,0-1.78-.711,2.385,2.385,0,0,0-1.419.431,19.08,19.08,0,0,1,1.324-6.22Zm7.736-8.523c2.105,0,4.392,1.943,6.275,5.332.295.53.571,1.085.829,1.654a2.688,2.688,0,0,0-1.242.658,1.024,1.024,0,0,1-1.535,0,2.583,2.583,0,0,0-3.56,0,1.024,1.024,0,0,1-1.535,0,2.583,2.583,0,0,0-3.56,0,1.024,1.024,0,0,1-1.535,0,2.689,2.689,0,0,0-1.241-.658c.257-.569.534-1.124.829-1.654C60.37,3.529,62.657,1.585,64.762,1.585Zm0,23.829a9.076,9.076,0,0,1-8.876-7.237,4.185,4.185,0,0,0,.467-.35,1.024,1.024,0,0,1,1.535,0,2.583,2.583,0,0,0,3.56,0,1.024,1.024,0,0,1,1.535,0,2.583,2.583,0,0,0,3.56,0,1.024,1.024,0,0,1,1.535,0,2.583,2.583,0,0,0,3.56,0,1.025,1.025,0,0,1,1.535,0,4.173,4.173,0,0,0,.467.35A9.076,9.076,0,0,1,64.762,25.415Z" transform="translate(0 0)" fill="#506270"/><path d="M120.709,242.189h1.585V243.7h-1.585Z" transform="translate(-63.081 -229.417)" fill="#506270"/><path d="M200.881,242.189h1.585V243.7h-1.585Z" transform="translate(-139.025 -229.417)" fill="#506270"/><path d="M281.054,242.189h1.585V243.7h-1.585Z" transform="translate(-214.971 -229.417)" fill="#506270"/><path d="M361.227,242.189h1.585V243.7h-1.585Z" transform="translate(-290.916 -229.417)" fill="#506270"/></g><g transform="translate(1517 223)"><g transform="translate(10.444 10.444)"><path d="M93.2,78.311A10.591,10.591,0,0,0,85.756,75.2a10.362,10.362,0,0,0-7.444,3.111,10.556,10.556,0,0,0,7.444,18A10.362,10.362,0,0,0,93.2,93.2a10.591,10.591,0,0,0,3.111-7.444A10.362,10.362,0,0,0,93.2,78.311ZM91.2,91.2a7.781,7.781,0,1,1,2.222-5.444A7.684,7.684,0,0,1,91.2,91.2Z" transform="translate(-75.2 -75.2)" fill="#ffe35a"/></g><g transform="translate(34.833 19.556)"><path d="M256.522,140.8h-4.278a1.444,1.444,0,0,0,0,2.889h4.278a1.444,1.444,0,0,0,0-2.889Z" transform="translate(-250.8 -140.8)" fill="#ffe35a"/></g><g transform="translate(19.556 34.833)"><path d="M142.244,250.8a1.471,1.471,0,0,0-1.444,1.444v4.278a1.444,1.444,0,0,0,2.889,0v-4.278A1.471,1.471,0,0,0,142.244,250.8Z" transform="translate(-140.8 -250.8)" fill="#ffe35a"/></g><g transform="translate(30.361 30.361)"><path d="M224.072,222.072l-3.056-3.056a1.414,1.414,0,0,0-2,2l3.056,3.056a1.414,1.414,0,0,0,2-2Z" transform="translate(-218.6 -218.6)" fill="#ffe35a"/></g><g transform="translate(19.556)"><path d="M142.244,0A1.471,1.471,0,0,0,140.8,1.444V5.722a1.444,1.444,0,0,0,2.889,0V1.444A1.471,1.471,0,0,0,142.244,0Z" transform="translate(-140.8)" fill="#ffe35a"/></g><g transform="translate(30.417 5.75)"><path d="M224.472,41.817a1.408,1.408,0,0,0-2,0l-3.056,3.056a1.414,1.414,0,0,0,2,2l3.056-3.056A1.408,1.408,0,0,0,224.472,41.817Z" transform="translate(-219 -41.4)" fill="#ffe35a"/></g><g transform="translate(0 19.556)"><path d="M5.722,140.8H1.444A1.471,1.471,0,0,0,0,142.244a1.434,1.434,0,0,0,1.444,1.444H5.722a1.444,1.444,0,0,0,0-2.889Z" transform="translate(0 -140.8)" fill="#ffe35a"/></g><g transform="translate(5.694 30.361)"><path d="M46.472,219.017a1.408,1.408,0,0,0-2,0l-3.056,3.056a1.414,1.414,0,1,0,2,2l3.056-3.056A1.408,1.408,0,0,0,46.472,219.017Z" transform="translate(-41 -218.6)" fill="#ffe35a"/></g><g transform="translate(5.694 5.75)"><path d="M46.472,44.872l-3.056-3.056a1.414,1.414,0,1,0-2,2l3.056,3.056a1.414,1.414,0,0,0,2-2Z" transform="translate(-41 -41.4)" fill="#ffe35a"/></g></g></g></svg>