<svg xmlns="http://www.w3.org/2000/svg" width="755.307" height="614.061" viewBox="0 0 755.307 614.061">
  <g id="Logo" transform="translate(-1200 -16953.064)">
    <g id="Group_1308" data-name="Group 1308" transform="translate(1200 16953.064)">
      <path id="Path_3911" data-name="Path 3911" d="M468.013,96a12.013,12.013,0,0,0,0,24.026,48.105,48.105,0,0,1,48.051,48.051,12.013,12.013,0,1,0,24.026,0A72.157,72.157,0,0,0,468.013,96Z" transform="translate(215.217 169.689)" fill="#42b883"/>
      <path id="Path_3910" data-name="Path 3910" d="M618.633,504.539h-30A36.081,36.081,0,0,1,552.591,468.5V420.449a12.026,12.026,0,0,0-12.013-12.013h-96.1a12.026,12.026,0,0,0-12.013,12.013V468.5a36.081,36.081,0,0,1-36.039,36.039H355.442a36.009,36.009,0,0,1-34.966-27.31c-7.6-30.323-29.229-106.414-65.973-157.919A219.59,219.59,0,0,0,204,268.787C112.385,262.107,0,223.332,0,129.613,0,88.39,28.244,60.319,51.938,44.03A38.762,38.762,0,0,0,68.6,12.013,12.013,12.013,0,0,1,80.612,0h49a12.013,12.013,0,0,1,12.013,12.013c0,2.275-.425,55.963-37.429,78.819-15.033,9.287-20.106,16.683-20.106,29.3,0,25.4,55.643,32.666,74.6,3.014,11.63-18.192,17.829-52.8,17.89-53.146a12.013,12.013,0,0,1,3.656-6.721C230.767,16.354,277.617-3.273,319.48,4.9c43.979,8.6,67.35,45.2,73.906,57.126l6.2,3.386C550.37,1.99,735.12,120.083,708.592,278.282c-8.3,49.488-53.029,192.851-55.387,200.389a36.216,36.216,0,0,1-34.573,25.868Z" transform="translate(0 109.522)" fill="#81e6b8"/>
      <path id="Path_3913" data-name="Path 3913" d="M579.131,94.253A402.4,402.4,0,0,1,192.842,336.762a653.9,653.9,0,0,1,30.9,93.193,36.008,36.008,0,0,0,34.966,27.307h40.982a36.081,36.081,0,0,0,36.039-36.039V373.172a12.026,12.026,0,0,1,12.013-12.013h96.1a12.026,12.026,0,0,1,12.013,12.013v48.051A36.081,36.081,0,0,0,491.9,457.261h30a36.216,36.216,0,0,0,34.573-25.868c2.357-7.538,47.087-150.9,55.387-200.389,8.1-48.334-3.5-96.341-32.73-136.751Z" transform="translate(96.73 156.8)" fill="#4bd195"/>
      <path id="Path_3914" data-name="Path 3914" d="M253.2,259.086a265.988,265.988,0,0,1-61.054-7.658,12.013,12.013,0,0,1-6.23-3.99c-1.2-1.467-29.233-36.262-6.544-70.5C263.588,42.66,258.847,49.5,260.694,47.657c28.08-28.029,71.476-33.01,103.193-11.854,37.148,24.776,46.362,76.432,20.539,115.152l-50.783,76.131c-16.944,25.4-50.337,32-80.442,32Z" transform="translate(85.543 120.932)" fill="#4bd195"/>
      <path id="Path_3915" data-name="Path 3915" d="M211.563,157.212a12.013,12.013,0,0,1,16.989,0,18.785,18.785,0,0,0,27.816-1.359l49.867-60.7c14.677-19.971-3.494-19.163-5.605-17.051A12.013,12.013,0,0,1,283.64,61.11c22.77-22.775,74.832,4.03,41.713,48.592-.318.432,2.734-3.314-50.421,61.4-28.086,34.195-81.431,4.173-63.369-13.891Z" transform="translate(104.289 136.02)" fill="#42b883"/>
      <circle id="Ellipse_204" data-name="Ellipse 204" cx="12" cy="12" r="12" transform="translate(216.154 205.499)" fill="#4bd195"/>
      <path id="Path_3916" data-name="Path 3916" d="M268.064,312.026H220.013a12.013,12.013,0,1,1,0-24.026h48.051a12.013,12.013,0,1,1,0,24.026Z" transform="translate(104.334 253.984)" fill="#42b883"/>
      <path id="Path_3917" data-name="Path 3917" d="M416.051,312.026H380.013a12.013,12.013,0,0,1,0-24.026h36.039a12.013,12.013,0,1,1,0,24.026Z" transform="translate(184.591 253.984)" fill="#42b883"/>
      <g id="Group_1297" data-name="Group 1297" transform="translate(516.552 223.644)">
        <circle id="Ellipse_205" data-name="Ellipse 205" cx="36" cy="36" r="36" transform="translate(5.602 -0.146)" fill="#e0f7fa"/>
        <circle id="Ellipse_206" data-name="Ellipse 206" cx="18" cy="18" r="18" transform="translate(-0.398 89.854)" fill="#e0f7fa"/>
      </g>
      <g id="lotus" transform="translate(40.543 0)">
        <path id="Path_3924" data-name="Path 3924" d="M132.178,337.663a47.8,47.8,0,0,0-18.5-11.546,3.9,3.9,0,0,0-3.83.754c-.458.4-17.3,16.412-42.112,9.8a3.924,3.924,0,0,0-2.149,0c-24.813,6.611-41.654-9.4-42.112-9.8a3.906,3.906,0,0,0-3.83-.754,47.8,47.8,0,0,0-18.5,11.546,3.909,3.909,0,0,0,0,5.526,48.284,48.284,0,0,0,65.517,2.557,48.284,48.284,0,0,0,65.517-2.557,3.907,3.907,0,0,0,0-5.526Z" transform="translate(0 -258.078)" fill="#ff4380"/>
        <path id="Path_3925" data-name="Path 3925" d="M321.517,337.663a47.8,47.8,0,0,0-18.5-11.546,3.9,3.9,0,0,0-3.83.754c-.458.4-17.3,16.412-42.112,9.8a3.9,3.9,0,0,0-1.072-.15l0,9.224a48.284,48.284,0,0,0,65.517-2.557,3.908,3.908,0,0,0,0-5.526Z" transform="translate(-189.339 -258.078)" fill="#f7006a"/>
        <path id="Path_3926" data-name="Path 3926" d="M133.294,226.4a54.044,54.044,0,0,0-25.607-.5,3.906,3.906,0,0,0-2.873,2.647,49.709,49.709,0,0,1-33.571,32.9,49.709,49.709,0,0,1-33.571-32.9A3.906,3.906,0,0,0,34.8,225.9a54.041,54.041,0,0,0-25.607.5,3.909,3.909,0,0,0-2.863,4.813,53.819,53.819,0,0,0,64.915,38.314,53.819,53.819,0,0,0,64.915-38.314,3.909,3.909,0,0,0-2.864-4.813Z" transform="translate(-4.581 -183.149)" fill="#ff759d"/>
        <path id="Path_3927" data-name="Path 3927" d="M318.052,226.4a54.045,54.045,0,0,0-25.607-.5,3.906,3.906,0,0,0-2.873,2.647A49.709,49.709,0,0,1,256,261.443v8.084a53.818,53.818,0,0,0,64.915-38.314,3.909,3.909,0,0,0-2.863-4.813Z" transform="translate(-189.339 -183.149)" fill="#ff4380"/>
        <path id="Path_3928" data-name="Path 3928" d="M173.7,117.372a3.906,3.906,0,0,0-4.783-2.761,57.661,57.661,0,0,0-24.983,14.1,3.906,3.906,0,0,0-1.085,3.752A51.567,51.567,0,0,1,132.009,178.3a51.567,51.567,0,0,1-10.836-45.842,3.906,3.906,0,0,0-1.085-3.752,57.663,57.663,0,0,0-24.983-14.1,3.906,3.906,0,0,0-4.783,2.761A57.523,57.523,0,0,0,131,187.825a3.918,3.918,0,0,0,2.027,0A57.522,57.522,0,0,0,173.7,117.372Z" transform="translate(-65.348 -101.702)" fill="#ff4380"/>
        <path id="Path_3929" data-name="Path 3929" d="M297.682,117.372a3.906,3.906,0,0,0-4.783-2.761,57.661,57.661,0,0,0-24.983,14.1,3.906,3.906,0,0,0-1.085,3.752A51.567,51.567,0,0,1,256,178.3l0,9.656a3.933,3.933,0,0,0,1.016-.133,57.523,57.523,0,0,0,40.674-70.453Z" transform="translate(-189.334 -101.702)" fill="#f7006a"/>
        <path id="Path_3930" data-name="Path 3930" d="M198.758,151.675a3.911,3.911,0,0,1-2.764-1.144,59.376,59.376,0,0,1,0-83.967,3.908,3.908,0,0,1,5.526,0,59.376,59.376,0,0,1,0,83.967A3.9,3.9,0,0,1,198.758,151.675Z" transform="translate(-132.097 -65.419)" fill="#ff759d"/>
        <path id="Path_3931" data-name="Path 3931" d="M255.994,151.675l0-86.256a3.911,3.911,0,0,1,2.764,1.144,59.376,59.376,0,0,1,0,83.967,3.906,3.906,0,0,1-2.762,1.144Z" transform="translate(-189.333 -65.419)" fill="#ff4380"/>
        <path id="Path_3932" data-name="Path 3932" d="M256,381.669h0Z" transform="translate(-189.339 -299.319)"/>
      </g>
    </g>
  </g>
</svg>
