<svg xmlns="http://www.w3.org/2000/svg" xmlns:xlink="http://www.w3.org/1999/xlink" width="1639.333" height="612.346" viewBox="0 0 1639.333 612.346"><defs><linearGradient id="a" x1="0.79" y1="0.095" x2="0.188" y2="0.892" gradientUnits="objectBoundingBox"><stop offset="0" stop-color="#4bd195"/><stop offset="1" stop-color="#4bd195"/></linearGradient></defs><g transform="translate(-1644.667 -2338.326)"><g transform="translate(61.168 -4691.674)"><path d="M285.683,612.346a304.771,304.771,0,0,1-74.891-9.279,308.78,308.78,0,0,1-88.411-46.893,311.324,311.324,0,0,1-68.393-71.861,232.158,232.158,0,0,0,47.985-11.168,227.849,227.849,0,0,0,52.6-26.366A118.775,118.775,0,0,0,167.2,473.164a124.221,124.221,0,0,0,19,22.969c24.309,23.126,56.634,35.861,91.019,35.861a181.919,181.919,0,0,0,31.3-2.7,175.615,175.615,0,0,0,29.758-7.949A170.578,170.578,0,0,0,390.9,490.623c2.5.142,5.048.215,7.566.215a131.382,131.382,0,0,0,106.252-54.13A201.955,201.955,0,0,1,483.254,497.9a212.672,212.672,0,0,1-40.481,52.551c-1.843,1.753-3.551,3.322-5.222,4.8C396.264,592.067,342.329,612.346,285.683,612.346Zm106.792-4.4v0c5.914-2.767,11.761-5.791,17.38-8.988a243.052,243.052,0,0,0,32-21.757l5.762,9.57A308.243,308.243,0,0,1,392.475,607.942Zm72.632-30.619v0h0l-8.064-13.393c45.734-43.511,70.92-101.366,70.92-162.907V381.444a132.659,132.659,0,0,0,1.823-21.929A130.791,130.791,0,0,0,500.2,276.474,296.417,296.417,0,0,0,551.358,210.6a283.034,283.034,0,0,0,24.986-58.206A309.846,309.846,0,0,1,465.107,577.323Zm-187.884-64.46a110.764,110.764,0,0,1-76.8-30.257,104.257,104.257,0,0,1-17.955-22.5,99.491,99.491,0,0,1-10.785-26.128,218,218,0,0,0,41.57-45.512,207.537,207.537,0,0,0,26.757-55.442h29.167v3.318a132.6,132.6,0,0,0-2.038,23.17A131.392,131.392,0,0,0,364.4,486.377c-2.265,1.545-4.589,3.039-6.907,4.441a151.248,151.248,0,0,1-24.937,12.1,154.639,154.639,0,0,1-26.941,7.422A160.241,160.241,0,0,1,277.223,512.862ZM42.509,466.245h0a309.108,309.108,0,0,1-22.235-46.24c4.491-.712,9-1.6,13.393-2.634A182.913,182.913,0,0,0,64.28,407.238,180.68,180.68,0,0,0,92.071,392.2a177.676,177.676,0,0,0,24.387-19.384,172.951,172.951,0,0,0,20.4-23.179A167.434,167.434,0,0,0,152.7,323.221a162.836,162.836,0,0,0,10.684-29.106,161.185,161.185,0,0,0,4.953-31.237h60.619v10.156a184.69,184.69,0,0,1-14.466,71.758,190.627,190.627,0,0,1-17.028,31.688,197.161,197.161,0,0,1-22.62,28,202.944,202.944,0,0,1-27.508,23.647,206.85,206.85,0,0,1-31.693,18.622,209.421,209.421,0,0,1-35.175,12.929,212.627,212.627,0,0,1-37.953,6.566ZM13.9,401.576h0A309.652,309.652,0,0,1,561.547,129.664c-.229.992-.432,1.856-.622,2.642-1.892,7.867-4.181,15.745-6.8,23.416a266.93,266.93,0,0,1-19.715,44.093,275.193,275.193,0,0,1-27.156,39.77A283.158,283.158,0,0,1,486.6,262.16a131.351,131.351,0,0,0-40.087-24.9,130.692,130.692,0,0,0-23.245-6.729,132.475,132.475,0,0,0-57.746,1.827,131.049,131.049,0,0,0-55.629,30.2,132.131,132.131,0,0,0-20.6,23.945V130.872c0-56.614-48.421-102.672-107.938-102.672V47.33c48.426,0,87.824,37.477,87.824,83.541V313.9H244.917c1.362-6.646,2.4-13.426,3.09-20.152a204.021,204.021,0,0,0,1.06-20.71V243.746H148.5v9.566a142.729,142.729,0,0,1-11.123,55.311,147.184,147.184,0,0,1-13.089,24.438A152.162,152.162,0,0,1,106.9,354.669,156.691,156.691,0,0,1,85.74,372.936,159.753,159.753,0,0,1,61.362,387.35,161.935,161.935,0,0,1,34.295,397.4a164.135,164.135,0,0,1-20.4,4.179ZM99.643,144.751a17.163,17.163,0,1,0,12.138,5.027A17.053,17.053,0,0,0,99.643,144.751Z" transform="translate(1583.499 7030)" fill="url(#a)"/><path d="M113.847,227.693A114.684,114.684,0,0,1,90.9,225.38a113.223,113.223,0,0,1-40.709-17.13A114.181,114.181,0,0,1,8.947,158.161a113.273,113.273,0,0,1-6.634-21.37,114.956,114.956,0,0,1,0-45.888,113.22,113.22,0,0,1,17.13-40.709A114.182,114.182,0,0,1,69.532,8.947,113.28,113.28,0,0,1,90.9,2.313a114.956,114.956,0,0,1,45.888,0A113.216,113.216,0,0,1,177.5,19.443a114.181,114.181,0,0,1,41.247,50.089,113.27,113.27,0,0,1,6.634,21.37,114.959,114.959,0,0,1,0,45.888,113.219,113.219,0,0,1-17.13,40.709,114.177,114.177,0,0,1-50.089,41.247,113.275,113.275,0,0,1-21.37,6.634A114.683,114.683,0,0,1,113.847,227.693Zm0-168.773A54.675,54.675,0,0,0,83.137,68.3a55.085,55.085,0,0,0-19.9,24.166A54.853,54.853,0,0,0,68.3,144.556a55.086,55.086,0,0,0,24.166,19.9,54.854,54.854,0,0,0,52.089-5.064,55.086,55.086,0,0,0,19.9-24.166,54.854,54.854,0,0,0-5.064-52.089,55.082,55.082,0,0,0-24.166-19.9A54.577,54.577,0,0,0,113.847,58.921Z" transform="translate(1866.619 7276.664)" fill="#2096f3"/><circle cx="95.5" cy="95.5" r="95.5" transform="translate(1902.832 7288.674)" fill="#2096f3"/><ellipse cx="68" cy="68.5" rx="68" ry="68.5" transform="translate(1902.832 7315.674)" fill="#2096f3"/></g><text transform="translate(2402 2733)" stroke="#000" stroke-width="2" font-size="250" font-family="ProductSans-Regular, Product Sans"><tspan x="0" y="0">BLOOM</tspan></text></g></svg>