<svg xmlns="http://www.w3.org/2000/svg" width="359.747" height="345.462" viewBox="0 0 359.747 345.462"><g transform="translate(0 1)"><path d="M285.44,274.634c0-3.728,5.867-6.744,13.1-6.744s13.1,3.016,13.1,6.744-5.867,6.739-13.1,6.739S285.44,278.368,285.44,274.634Z" transform="translate(-128.932 -121.553)" fill="#8dc5e0" fill-rule="evenodd"/><path d="M248.11,560.033l3.975,12.8,16.493-3.767-1.617-16.274Z" transform="translate(-112.071 -250.242)" fill="#ff3274" fill-rule="evenodd"/><path d="M166.274,282.94H417.111a2.423,2.423,0,0,1,2.423,2.423v4.386a2.424,2.424,0,0,1-2.423,2.424H166.274a2.424,2.424,0,0,1-2.424-2.424v-4.386A2.424,2.424,0,0,1,166.274,282.94Z" transform="translate(-74.011 -128.351)" fill="#aadaf1" fill-rule="evenodd"/><path d="M188.745,300.18,138,455.8" transform="translate(-62.334 -136.139)" fill="none" stroke="#aadaf1" stroke-linecap="round" stroke-linejoin="round" stroke-width="2"/><path d="M263.874,300.18,213.15,455.8" transform="translate(-96.279 -136.139)" fill="none" stroke="#aadaf1" stroke-linecap="round" stroke-linejoin="round" stroke-width="2"/><path d="M305.66,300.18,356.378,455.8" transform="translate(-138.066 -136.139)" fill="none" stroke="#aadaf1" stroke-linecap="round" stroke-linejoin="round" stroke-width="2"/><path d="M230.55,300.18,281.268,455.8" transform="translate(-104.139 -136.139)" fill="none" stroke="#aadaf1" stroke-linecap="round" stroke-linejoin="round" stroke-width="2"/><path d="M143.38,537.54,138.04,549.6l14.782,6.333,6.58-12.194Z" transform="translate(-62.352 -243.354)" fill="#ff3274" fill-rule="evenodd"/><path d="M131.945,557.51l15.627,6.766s19.476,18.247,28.462,22.694c-.027,4.052-.548,5.933-3.663,7.09-1.393.515-26.565-9.562-26.565-9.562l-4.222-4.529-16.285-7.49Z" transform="translate(-56.598 -252.374)" fill="#6a3416" fill-rule="evenodd"/><path d="M154.63,550.07a1.985,1.985,0,1,1,.581,1.409,1.99,1.99,0,0,1-.581-1.409Z" transform="translate(-69.846 -248.115)" fill="none" stroke="#fff" stroke-linecap="round" stroke-linejoin="round" stroke-width="2"/><path d="M140.9,554.8a2,2,0,1,1,1.99,2,2,2,0,0,1-1.99-2Z" transform="translate(-63.644 -250.246)" fill="none" stroke="#fff" stroke-linecap="round" stroke-linejoin="round" stroke-width="2"/><path d="M159.72,561.19a1.99,1.99,0,1,1,1.99,1.99A1.99,1.99,0,0,1,159.72,561.19Z" transform="translate(-72.145 -253.137)" fill="none" stroke="#fff" stroke-linecap="round" stroke-linejoin="round" stroke-width="2"/><path d="M119.927,579.429l15.939,7.09a1.711,1.711,0,0,1,.888,2.243l-1.393,3.131a1.7,1.7,0,0,1-2.259.833l-15.95-7.09a1.7,1.7,0,0,1-.888-2.237l1.387-3.131a1.711,1.711,0,0,1,2.275-.839Z" transform="translate(-52.453 -262.203)" fill="#3c1b09" fill-rule="evenodd"/><path d="M73.7,322.754c36.3-10.226,88.381-4.562,99.616,11.037,4.014,5.571,2.654,14.289,1.645,17.573s-43.491,94.429-43.491,94.429l-19.048-7.243,18.719-74.021S69.184,324.015,73.7,322.754Z" transform="translate(-33.182 -144.007)" fill="#c4c4c4" fill-rule="evenodd"/><path d="M156.81,484.654,178.737,414" transform="translate(-70.831 -187.551)" fill="none" stroke="#8d8d8d" stroke-linecap="round" stroke-linejoin="round" stroke-width="2"/><path d="M148,524.33l20.441,7.676" transform="translate(-66.851 -237.387)" fill="none" stroke="#8d8d8d" stroke-linecap="round" stroke-linejoin="round" stroke-width="2"/><path d="M254.76,582.939l16.372-4.672s26.631,1.771,36.4-.488c2.55,3.153,3.356,4.935,1.645,7.808-.751,1.278-26.609,9.442-26.609,9.442l-6.135-.828-17.321,4.535Z" transform="translate(-115.074 -261.53)" fill="#6a3416" fill-rule="evenodd"/><path d="M256.581,609.5l16.822-4.622a1.7,1.7,0,0,1,2.105,1.162l.91,3.29a1.7,1.7,0,0,1-1.217,2.078l-16.822,4.622a1.7,1.7,0,0,1-2.105-1.162l-.91-3.29a1.7,1.7,0,0,1,1.217-2.078Z" transform="translate(-115.322 -273.738)" fill="#3c1b09" fill-rule="evenodd"/><path d="M268.1,575.091a2,2,0,1,1,1.99,1.99A2,2,0,0,1,268.1,575.091Z" transform="translate(-121.1 -259.411)" fill="none" stroke="#fff" stroke-linecap="round" stroke-linejoin="round" stroke-width="2"/><path d="M274.61,563.351a2,2,0,1,1,1.99,1.99A2,2,0,0,1,274.61,563.351Z" transform="translate(-124.041 -254.108)" fill="none" stroke="#fff" stroke-linecap="round" stroke-linejoin="round" stroke-width="2"/><path d="M254.76,572.51a1.99,1.99,0,1,1,1.99,1.99,1.99,1.99,0,0,1-1.99-1.99Z" transform="translate(-115.074 -258.251)" fill="none" stroke="#fff" stroke-linecap="round" stroke-linejoin="round" stroke-width="2"/><path d="M10.763,408.63H94a10.763,10.763,0,0,1,10.763,10.763h0A10.763,10.763,0,0,1,94,430.156H10.763A10.763,10.763,0,0,1,0,419.393H0A10.763,10.763,0,0,1,10.763,408.63Z" transform="translate(0 -185.125)" fill="#aadaf1" fill-rule="evenodd"/><path d="M87.454,434.48h6.974a2.084,2.084,0,0,1,2.084,2.084v77.091a2.084,2.084,0,0,1-2.084,2.083H87.454a2.084,2.084,0,0,1-2.084-2.083V436.564A2.084,2.084,0,0,1,87.454,434.48Z" transform="translate(-38.561 -196.802)" fill="#aadaf1" fill-rule="evenodd"/><path d="M81.2,537.54H93.811a3.432,3.432,0,0,1,3.432,3.432v18.609a3.432,3.432,0,0,1-3.46,3.432H81.172a3.432,3.432,0,0,1-3.432-3.432V540.972a3.432,3.432,0,0,1,3.46-3.432Z" transform="translate(-35.115 -243.353)" fill="#aadaf1" fill-rule="evenodd"/><path d="M19.32,597.252v-3.635A9.617,9.617,0,0,1,28.937,584H61.106" transform="translate(-8.727 -264.339)" fill="none" stroke="#aadaf1" stroke-linecap="round" stroke-linejoin="round" stroke-width="2"/><path d="M137.142,597.252v-3.635A9.623,9.623,0,0,0,127.508,584H95.35" transform="translate(-43.069 -264.339)" fill="none" stroke="#aadaf1" stroke-linecap="round" stroke-linejoin="round" stroke-width="2"/><path d="M66.78,597.252v-4.386c0-4.9,2.55-8.866,5.691-8.866H92.616c3.142,0,5.691,3.97,5.691,8.866v4.386" transform="translate(-30.164 -264.339)" fill="none" stroke="#aadaf1" stroke-linecap="round" stroke-linejoin="round" stroke-width="2"/><path d="M9.71,613.449a5.269,5.269,0,1,1,5.269,5.269,5.269,5.269,0,0,1-5.269-5.269Z" transform="translate(-4.386 -275.261)" fill="none" stroke="#aadaf1" stroke-linecap="round" stroke-linejoin="round" stroke-width="2"/><path d="M57.17,613.449a5.269,5.269,0,1,1,5.269,5.269A5.269,5.269,0,0,1,57.17,613.449Z" transform="translate(-25.824 -275.261)" fill="none" stroke="#aadaf1" stroke-linecap="round" stroke-linejoin="round" stroke-width="2"/><path d="M119.939,608.17a5.275,5.275,0,1,1-5.269,5.275,5.275,5.275,0,0,1,5.269-5.275" transform="translate(-51.796 -275.257)" fill="none" stroke="#aadaf1" stroke-linecap="round" stroke-linejoin="round" stroke-width="2"/><path d="M162,613.449a5.269,5.269,0,1,1,5.269,5.269A5.269,5.269,0,0,1,162,613.449Z" transform="translate(-73.175 -275.261)" fill="none" stroke="#aadaf1" stroke-linecap="round" stroke-linejoin="round" stroke-width="2"/><path d="M17.855,286.475c-33.211,69.371,33.819,71.241,57.342,70.9s29.713-2.116,36.078-3.657c2.034,6.163,26.417,85.974,26.417,85.974l21.411-6.47s-16.367-101.392-20.062-108.241c-10.149-18.829-70.183-19.849-77.777-19.393S22.066,277.681,17.855,286.475Z" transform="translate(-3.972 -129.184)" fill="#c4c4c4" fill-rule="evenodd"/><path d="M26.287,305.16c-22.749,56.777,74.816,53.355,96.156,46.852C125.634,361.142,152.051,446,152.051,446" transform="translate(-10.331 -138.388)" fill="none" stroke="#8d8d8d" stroke-linecap="round" stroke-linejoin="round" stroke-width="2"/><path d="M233.671,366.431A31.089,31.089,0,0,1,208.86,336.85" transform="translate(-94.341 -152.702)" fill="none" stroke="#8d8d8d" stroke-linecap="round" stroke-linejoin="round" stroke-width="2"/><path d="M177.07,412.584a94.786,94.786,0,0,0,10.215-2.084c.844,2.555,5.532,17.781,10.725,34.724" transform="translate(-79.982 -185.97)" fill="none" stroke="#8d8d8d" stroke-linecap="round" stroke-linejoin="round" stroke-width="2"/><path d="M187.949,358.88c-1.787-8.921-3.29-15.281-4.1-16.827-9.54-17.688-63.143-19.662-75.858-19.454" transform="translate(-48.779 -146.259)" fill="none" stroke="#8d8d8d" stroke-linecap="round" stroke-linejoin="round" stroke-width="2"/><path d="M262.748,544.06l-22.228,6.717" transform="translate(-108.642 -246.299)" fill="none" stroke="#8d8d8d" stroke-linecap="round" stroke-linejoin="round" stroke-width="2"/><path d="M98.67,82.321a11.361,11.361,0,1,1,11.355,11.361A11.361,11.361,0,0,1,98.67,82.321Z" transform="translate(-44.569 -32.601)" fill="#6a3416" fill-rule="evenodd"/><path d="M294.225,257.918c1.87-1.535,6.936-5.28,8.559-5.258s6.536,4.639,6.645,5.85a3.96,3.96,0,0,1-2.385,3.262c-.932.137-3.931-2.741-4.589-2.484a9.012,9.012,0,0,0-2.528,2.473C299.505,262.442,292.361,259.426,294.225,257.918Z" transform="translate(-132.761 -114.674)" fill="#f77f89" fill-rule="evenodd"/><path d="M164.33,173.01l11.218,11.449s8.488-18.22,14.4-27.859c-1.2-1.722-3.29-8.581-3.021-9.869s6.443-13.45,7.934-12.743a4.724,4.724,0,0,1,2.122,5.483c.883-3.164,2.374-7.539,3.69-7.972s4.085.137,3.964,2.358a3.739,3.739,0,0,1,3.016-2.528c1.1-.049,3.334.888,3.487,2.27.186,1.727-2.281,5.85-2.583,6.437,1.151-1.568,1.14-1.645,1.831-1.645a3.632,3.632,0,0,1,2.588,5.088c-1.146,2.977-6.81,16.871-11.2,17.463.2,2.7-12.869,40.339-12.869,40.339l-19.8-.79L154.68,181.41Z" transform="translate(-69.869 -59.868)" fill="#f77f89" fill-rule="evenodd"/><path d="M63.672,131.92c-36.424.044-48.6,85.535-44.791,91.4,2.791,4.3,35.832,16.937,47.154,13.055,4-1.371,14.4-22.727,20.287-44.275,6.278-5.154,18.16-14.914,20.1-16.795-.548-4.129-10.094-20.764-19.98-28.133C83.022,139.366,76.683,131.92,63.672,131.92Z" transform="translate(-8.228 -60.136)" fill="#3b4161" fill-rule="evenodd"/><path d="M118.3,224.869s17.387,21.932,21.96,23.714,53.964,1.212,57.572.79,2.95,2.33,6.212,2.506c3.378.186,5.324-2.8,5.785-4.31,2.062,2.292,5.7,5.817,8.082,4.589,1.689-.877,1.711-1.645.548-2.857,1.645.949,4.617,2.341,5.817,1.4,1.93-1.5,2.111-2.906,1.458-4.074-2.012-3.613-8.493-8.729-10.034-9.321-1.777-.7-7.188,1.228-9.793,1.387-11.8.729-41.572-6.613-51.338-7.057C153.134,228.9,138.247,210.9,137.1,209.1,133.011,212.593,118.3,224.869,118.3,224.869Z" transform="translate(-53.436 -94.998)" fill="#f77f89" fill-rule="evenodd"/><path d="M109.45,85.635A17.25,17.25,0,1,1,126.7,102.879,17.25,17.25,0,0,1,109.45,85.635Z" transform="translate(-49.438 -31.435)" fill="#f77f89" fill-rule="evenodd"/><path d="M107.278,92.8c.071,2.681-5.543,19.635-7.758,22.881,1.1,2.593,11.827,9.1,16.756,7.709.548-3.29,2.385-9.9,3.52-11.372S107.207,90.094,107.278,92.8Z" transform="translate(-44.953 -42.354)" fill="#f77f89" fill-rule="evenodd"/><path d="M126.611,33.54a11.3,11.3,0,0,0-8.6,4.014,12.884,12.884,0,0,0-16.893,15.862,7.539,7.539,0,0,0-2.434,5.538,7.7,7.7,0,0,0,6.305,7.523c.088-.422.088-.718.225-1.2.373-1.283,5.955-3.63,6.58-3.208a4.353,4.353,0,0,0,1.645.724,1.318,1.318,0,0,0,.154,0,13,13,0,0,0,11.344-6.717,11.514,11.514,0,0,0,1.694.17,11.361,11.361,0,1,0,11.361-11.361A11.361,11.361,0,0,0,126.611,33.54Z" transform="translate(-44.573 -15.698)" fill="#6a3416" fill-rule="evenodd"/><path d="M101.11,75.3a6.678,6.678,0,1,1,1.95,4.733A6.678,6.678,0,0,1,101.11,75.3Z" transform="translate(-45.671 -31.553)" fill="#f77f89" fill-rule="evenodd"/><path d="M38.55,241.632c-.718-10.6,9.414-50,17-61.722" transform="translate(-17.397 -81.813)" fill="none" stroke="#737999" stroke-linecap="round" stroke-linejoin="round" stroke-width="2"/><path d="M79.53,181.915c1.766,3.646,10.5,19.794,17.9,25.491,2.824-2.676,23.177-20.019,23.177-20.019-2.6-4.831-15.095-19.975-19.147-23.687" transform="translate(-35.923 -74.491)" fill="none" stroke="#737999" stroke-linecap="round" stroke-linejoin="round" stroke-width="2"/><path d="M105.19,220.036l24.465-20.216" transform="translate(-47.514 -90.806)" fill="none" stroke="#737999" stroke-linecap="round" stroke-linejoin="round" stroke-width="2"/><path d="M121.854,150.57a5.291,5.291,0,0,1-.757,1.513c-2.906,4.057-11.1,3.613-18.3-.987" transform="translate(-46.434 -68.56)" fill="none" stroke="#737999" stroke-linecap="round" stroke-linejoin="round" stroke-width="2"/><path d="M142.77,159.8a49.469,49.469,0,0,1,2.484,20.079" transform="translate(-64.489 -72.729)" fill="none" stroke="#737999" stroke-linecap="round" stroke-linejoin="round" stroke-width="2"/><path d="M159.2,210.9l9.211-8.175" transform="translate(-71.91 -92.116)" fill="none" stroke="#737999" stroke-linecap="round" stroke-linejoin="round" stroke-width="2"/><path d="M86,278.825c3.043-.477,19.657-.137,16.586.9s-8.817,1.782-6.256,2.385a63.235,63.235,0,0,0,7.462,1.283" transform="translate(-38.846 -126.397)" fill="none" stroke="#737999" stroke-linecap="round" stroke-linejoin="round" stroke-width="2"/><path d="M157.546,100.68c-.17,1.519.164,4.935,1.31,6.426" transform="translate(-71.144 -46.025)" fill="none" stroke="#b5545c" stroke-linecap="round" stroke-linejoin="round" stroke-width="2"/><path d="M140.438,95.5c.548-1.3,1.645-2.084,2.407-1.749s.916,1.645.351,2.955-1.645,2.084-2.407,1.749S139.868,96.8,140.438,95.5Z" transform="translate(-63.281 -42.858)" fill="#b5545c" fill-rule="evenodd"/><path d="M164.188,100.9c.548-1.3,1.645-2.084,2.407-1.755s.916,1.645.351,2.955-1.645,2.084-2.407,1.749S163.618,102.2,164.188,100.9Z" transform="translate(-74.009 -45.299)" fill="#b5545c" fill-rule="evenodd"/><path d="M137.393,115.826a5.615,5.615,0,0,1-3.893-4.836" transform="translate(-60.302 -50.682)" fill="none" stroke="#b5545c" stroke-linecap="round" stroke-linejoin="round" stroke-width="2"/><path d="M125.828,124.573a17.261,17.261,0,0,1-11.268-7.523" transform="translate(-51.746 -53.419)" fill="none" stroke="#b5545c" stroke-linecap="round" stroke-linejoin="round" stroke-width="2"/><path d="M114.14,92.2a6.58,6.58,0,0,1-2.33.422,6.687,6.687,0,0,1-1.8-.246" transform="translate(-49.692 -42.195)" fill="none" stroke="#b5545c" stroke-linecap="round" stroke-linejoin="round" stroke-width="2"/><path d="M108.564,81.8a3.909,3.909,0,1,1,4.935-3.772" transform="translate(-47.735 -34.028)" fill="none" stroke="#b5545c" stroke-linecap="round" stroke-linejoin="round" stroke-width="2"/><path d="M193.645,241.016,175.4,238.231,164.08,223.69" transform="translate(-74.114 -101.588)" fill="none" stroke="#b5545c" stroke-linecap="round" stroke-linejoin="round" stroke-width="2"/><path d="M228.994,161.5c.68-1.48,2.566-4.726,1.914-6.141s-5.171-3.328-4.617-4.683a47.717,47.717,0,0,1,3.065-5.017" transform="translate(-102.194 -66.343)" fill="none" stroke="#b5545c" stroke-linecap="round" stroke-linejoin="round" stroke-width="2"/><path d="M242.89,135.92l-3.46,7.073" transform="translate(-108.15 -61.943)" fill="none" stroke="#b5545c" stroke-linecap="round" stroke-linejoin="round" stroke-width="2"/><path d="M250.923,147.2l-2.813,3.992" transform="translate(-112.071 -67.038)" fill="none" stroke="#b5545c" stroke-linecap="round" stroke-linejoin="round" stroke-width="2"/><path d="M296.59,260.86l5.022,3.838" transform="translate(-133.969 -118.378)" fill="none" stroke="#b5545c" stroke-linecap="round" stroke-linejoin="round" stroke-width="2"/><path d="M297.75,279.145,294,275.68" transform="translate(-132.799 -125.072)" fill="none" stroke="#b5545c" stroke-linecap="round" stroke-linejoin="round" stroke-width="2"/><path d="M259.3,37.17h6.322c.3,0,.548.351.548.784V41.9c0,.433-.247.779-.548.779H259.3c-.3,0-.548-.345-.548-.779V37.954C258.755,37.521,259,37.17,259.3,37.17Z" transform="translate(-116.877 -17.338)" fill="#ff3274" fill-rule="evenodd"/><path d="M273.672,40.6v2.424c0,.071-.049.1-.1.066l-2.105-1.2-2.1-1.212c-.06-.033-.06-.088,0-.121l2.1-1.217,2.105-1.212a.066.066,0,0,1,.1.06Z" transform="translate(-121.65 -17.766)" fill="#ff3274" fill-rule="evenodd"/><path d="M251,34.511a9.321,9.321,0,1,1,9.321,9.321A9.321,9.321,0,0,1,251,34.511Z" transform="translate(-113.376 -11.927)" fill="none" stroke="#ff3274" stroke-linecap="round" stroke-linejoin="round" stroke-width="2"/><path d="M17.92,1H151.481a13.56,13.56,0,0,1,13.565,13.565V82.593a13.565,13.565,0,0,1-13.565,13.565H17.92A13.565,13.565,0,0,1,4.36,82.593V14.565A13.56,13.56,0,0,1,17.92,1Z" transform="translate(-1.969 -1)" fill="none" stroke="#9b9b9b" stroke-linecap="round" stroke-linejoin="round" stroke-width="2"/><path d="M165,16.87H6.2" transform="translate(-2.801 -8.168)" fill="none" stroke="#9b9b9b" stroke-linecap="round" stroke-linejoin="round" stroke-width="2"/><path d="M22.14,7.636A1.93,1.93,0,1,1,24.07,9.56a1.93,1.93,0,0,1-1.93-1.925Z" transform="translate(-10.001 -3.123)" fill="none" stroke="#ff3274" stroke-linecap="round" stroke-linejoin="round" stroke-width="2"/><path d="M36,7.636A1.925,1.925,0,1,1,36.566,9,1.93,1.93,0,0,1,36,7.636Z" transform="translate(-16.261 -3.123)" fill="none" stroke="#ff3274" stroke-linecap="round" stroke-linejoin="round" stroke-width="2"/><path d="M49.89,7.636A1.93,1.93,0,1,1,51.82,9.56a1.93,1.93,0,0,1-1.93-1.925Z" transform="translate(-22.535 -3.123)" fill="none" stroke="#ff3274" stroke-linecap="round" stroke-linejoin="round" stroke-width="2"/><path d="M444.414,300.18,393.69,455.8" transform="translate(-177.829 -136.139)" fill="none" stroke="#aadaf1" stroke-linecap="round" stroke-linejoin="round" stroke-width="2"/><path d="M519.523,300.18,468.8,455.8" transform="translate(-211.756 -136.139)" fill="none" stroke="#aadaf1" stroke-linecap="round" stroke-linejoin="round" stroke-width="2"/><path d="M561.31,300.18,612.028,455.8" transform="translate(-253.542 -136.139)" fill="none" stroke="#aadaf1" stroke-linecap="round" stroke-linejoin="round" stroke-width="2"/><path d="M486.2,300.18,536.918,455.8" transform="translate(-219.615 -136.139)" fill="none" stroke="#aadaf1" stroke-linecap="round" stroke-linejoin="round" stroke-width="2"/><path d="M320.955,115.4h78.621a6.136,6.136,0,0,1,6.135,6.136V186.46a6.135,6.135,0,0,1-6.135,6.135H320.955a6.136,6.136,0,0,1-6.125-6.135V121.535A6.136,6.136,0,0,1,320.955,115.4Z" transform="translate(-142.208 -52.674)" fill="#aadaf1" fill-rule="evenodd"/><path d="M320.945,115.39a6.13,6.13,0,0,0-6.135,6.13v64.935a6.135,6.135,0,0,0,6.135,6.108h3.942c-.033-.373-.121-.735-.121-1.1V115.39Z" transform="translate(-142.199 -52.67)" fill="#8dc5e0" fill-rule="evenodd"/><path d="M377.82,221.28h26.543l14.864,33.808H391.747Z" transform="translate(-170.66 -100.5)" fill="#8dc5e0" fill-rule="evenodd"/><path d="M539.54,239.49h21.866v23.824H539.54Z" transform="translate(-243.709 -108.725)" fill="#8dc5e0" fill-rule="evenodd"/><path d="M568.79,256.562a5.642,5.642,0,1,1,5.642,5.642,5.642,5.642,0,0,1-5.642-5.642Z" transform="translate(-256.921 -113.888)" fill="none" stroke="#8dc5e0" stroke-linecap="round" stroke-linejoin="round" stroke-width="2"/><path d="M539.54,246.89h21.68" transform="translate(-243.709 -112.068)" fill="none" stroke="#aadaf1" stroke-linecap="round" stroke-linejoin="round" stroke-width="2"/><path d="M18.05,1H151.611a13.565,13.565,0,0,1,13.565,13.565V82.593a13.565,13.565,0,0,1-13.565,13.565H18.05A13.565,13.565,0,0,1,4.49,82.593V14.565A13.56,13.56,0,0,1,18.05,1Z" transform="translate(-2.028 -1)" fill="#fff" fill-rule="evenodd" opacity="0.25" style="isolation:isolate"/></g></svg>