<svg xmlns="http://www.w3.org/2000/svg" xmlns:xlink="http://www.w3.org/1999/xlink" width="616.683" height="505.11" viewBox="0 0 616.683 505.11"><defs><filter id="a" x="414.669" y="0" width="202.015" height="133.918" filterUnits="userSpaceOnUse"><feOffset dy="3" input="SourceAlpha"/><feGaussianBlur stdDeviation="3" result="b"/><feFlood flood-opacity="0.161"/><feComposite operator="in" in2="b"/><feComposite in="SourceGraphic"/></filter><filter id="c" x="0" y="29.79" width="195.987" height="80.495" filterUnits="userSpaceOnUse"><feOffset dy="3" input="SourceAlpha"/><feGaussianBlur stdDeviation="3" result="d"/><feFlood flood-opacity="0.161"/><feComposite operator="in" in2="d"/><feComposite in="SourceGraphic"/></filter></defs><g transform="translate(-87.447 -2212.917)"><g transform="translate(0 61.112)"><circle cx="185.768" cy="185.768" r="185.768" transform="translate(225 2236)" fill="#eff8ff"/><circle cx="234.253" cy="234.253" r="234.253" transform="translate(176.7 2187.888)" fill="none" stroke="#002e4e" stroke-miterlimit="10" stroke-width="1.044" stroke-dasharray="6.262"/><path d="M112.264,15.93A112.241,112.241,0,0,0,57.055,225.909a4.6,4.6,0,0,0,3.556.44,4.679,4.679,0,0,0,2.807-2.19L98.04,162.971a4.679,4.679,0,0,0-1.769-6.372,32.751,32.751,0,1,1,32.077,0,4.679,4.679,0,0,0-1.769,6.372l34.529,61.188a4.679,4.679,0,0,0,2.807,2.2,4.491,4.491,0,0,0,1.254.178,4.679,4.679,0,0,0,2.3-.608,112.241,112.241,0,0,0-55.208-210Z" transform="translate(298 2300.07)" fill="#4caf50"/></g><g transform="translate(-910 -1881)"><g transform="matrix(1, 0, 0, 1, 997.45, 4093.92)" filter="url(#a)"><rect width="183.044" height="114.947" rx="13.167" transform="translate(424.15 6.49)" fill="#fff" stroke="#002e4e" stroke-miterlimit="10" stroke-width="0.971"/></g><line x2="135.83" transform="translate(1445.208 4130.546)" fill="none" stroke="#a6b7bc" stroke-miterlimit="10" stroke-width="1"/><line x2="102.054" transform="translate(1462.641 4152.337)" fill="none" stroke="#a6b7bc" stroke-miterlimit="10" stroke-width="1"/><rect width="88.253" height="23.97" rx="11" transform="translate(1476 4171.946)" fill="#4bd195"/><text transform="translate(1520 4186.947)" fill="#fff" font-size="9" font-family="Rubik-Regular, Rubik"><tspan x="-22.5" y="0">Contribute</tspan></text></g><g transform="matrix(1, 0, 0, 1, 87.45, 2212.92)" filter="url(#c)"><rect width="176.507" height="61.015" rx="13.167" transform="translate(9.74 36.53)" fill="#fff" stroke="#002e4e" stroke-miterlimit="10" stroke-width="1.48"/></g><text transform="translate(168.317 2284)" fill="#a6b7bc" font-size="12" font-family="Rubik-Regular, Rubik"><tspan x="0" y="0">Code together</tspan></text><circle cx="20.701" cy="20.701" r="20.701" transform="translate(109 2259)" fill="#4bd195"/><g transform="translate(119 2205.687)"><g transform="translate(0 66.313)"><path d="M9.149,73.714a1.044,1.044,0,0,0-.317-.75L2.5,66.63a1.045,1.045,0,0,0-1.5,0l-.68.68a1.044,1.044,0,0,0,0,1.5l4.906,4.906L.317,78.621a1.044,1.044,0,0,0,0,1.5l.678.678a1.045,1.045,0,0,0,1.5,0l6.336-6.335A1.043,1.043,0,0,0,9.149,73.714Z" transform="translate(0 -66.313)" fill="#fff"/><path d="M163.885,384.951H150.834A1.036,1.036,0,0,0,149.781,386v.87a1.036,1.036,0,0,0,1.053,1.053h13.051a1.037,1.037,0,0,0,1.053-1.054V386a1.035,1.035,0,0,0-1.053-1.053Z" transform="translate(-143.729 -372.077)" fill="#fff"/></g></g></g></svg>