<svg xmlns="http://www.w3.org/2000/svg" xmlns:xlink="http://www.w3.org/1999/xlink" width="475" height="892" viewBox="0 0 475 892">
  <defs>
    <filter id="body" x="0" y="0" width="475" height="892" filterUnits="userSpaceOnUse">
      <feOffset dy="6" input="SourceAlpha"/>
      <feGaussianBlur stdDeviation="10" result="blur"/>
      <feFlood flood-color="#7d8a9f" flood-opacity="0.4"/>
      <feComposite operator="in" in2="blur"/>
      <feComposite in="SourceGraphic"/>
    </filter>
  </defs>
  <g id="Phone" transform="translate(-1206 -5519)">
    <g transform="matrix(1, 0, 0, 1, 1206, 5519)" filter="url(#body)">
      <g id="body-2" data-name="body" transform="translate(31 25)" fill="#fff" stroke-miterlimit="10">
        <path d="M83.22,830a81,81,0,0,1-81-81V306.336H0V247H2.22V230.679H0V171.34H2.22V143.155H0V112.744H2.22V81a81,81,0,0,1,81-81H329.78a81,81,0,0,1,81,81V192.109H413v94.943h-2.22V749a81,81,0,0,1-81,81Z" stroke="none"/>
        <path d="M 329.7798461914063 829.9998168945313 C 374.5151672363281 829.9998168945313 410.7798461914063 793.7352294921875 410.7798461914063 748.9998168945313 L 410.7798461914063 287.0514526367188 L 413.0001831054688 287.0514526367188 L 413.0001831054688 192.1085815429688 L 410.7798461914063 192.1085815429688 L 410.7798461914063 81.00002288818359 C 410.7798461914063 36.26468658447266 374.5151672363281 1.955837615241762e-05 329.7798461914063 1.955837615241762e-05 L 83.22028350830078 1.955837615241762e-05 C 38.48583984375 1.955837615241762e-05 2.220283269882202 36.26468658447266 2.220283269882202 81.00002288818359 L 2.220283269882202 112.7439117431641 L 6.103515625e-05 112.7439117431641 L 6.103515625e-05 143.1549072265625 L 2.220283269882202 143.1549072265625 L 2.220283269882202 171.3402404785156 L 6.103515625e-05 171.3402404785156 L 6.103515625e-05 230.6790161132813 L 2.220283269882202 230.6790161132813 L 2.220283269882202 246.9969024658203 L 6.103515625e-05 246.9969024658203 L 6.103515625e-05 306.335693359375 L 2.220283269882202 306.335693359375 L 2.220283269882202 748.9998168945313 C 2.220283269882202 793.7352294921875 38.48583984375 829.9998168945313 83.22028350830078 829.9998168945313 L 329.7798461914063 829.9998168945313 M 329.7798461914063 830.9998168945313 L 83.22028350830078 830.9998168945313 C 77.65739440917969 830.9998168945313 72.09772491455078 830.4393310546875 66.69561767578125 829.3339233398438 C 61.43039321899414 828.2564697265625 56.25128173828125 826.6488037109375 51.30217361450195 824.5554809570313 C 46.44306182861328 822.500244140625 41.75661468505859 819.9566040039063 37.37283706665039 816.9949951171875 C 33.03105926513672 814.0617065429688 28.94817161560059 810.693115234375 25.23772811889648 806.982666015625 C 21.52728271484375 803.272216796875 18.15861701965332 799.189453125 15.2253942489624 794.84765625 C 12.26372814178467 790.4639282226563 9.719949722290039 785.7774658203125 7.664727687835693 780.9183349609375 C 5.571394443511963 775.96923828125 3.963727712631226 770.7900390625 2.886283159255981 765.524658203125 C 1.780838847160339 760.12255859375 1.220283269882202 754.5628051757813 1.220283269882202 748.9998168945313 L 1.220283269882202 307.335693359375 L 6.103515625e-05 307.335693359375 L -0.99993896484375 307.335693359375 L -0.99993896484375 306.335693359375 L -0.99993896484375 246.9969024658203 L -0.99993896484375 245.9969024658203 L 6.103515625e-05 245.9969024658203 L 1.220283269882202 245.9969024658203 L 1.220283269882202 231.6790161132813 L 6.103515625e-05 231.6790161132813 L -0.99993896484375 231.6790161132813 L -0.99993896484375 230.6790161132813 L -0.99993896484375 171.3402404785156 L -0.99993896484375 170.3402404785156 L 6.103515625e-05 170.3402404785156 L 1.220283269882202 170.3402404785156 L 1.220283269882202 144.1549072265625 L 6.103515625e-05 144.1549072265625 L -0.99993896484375 144.1549072265625 L -0.99993896484375 143.1549072265625 L -0.99993896484375 112.7439117431641 L -0.99993896484375 111.7439117431641 L 6.103515625e-05 111.7439117431641 L 1.220283269882202 111.7439117431641 L 1.220283269882202 81.00002288818359 C 1.220283269882202 75.43701934814453 1.780838847160339 69.87724304199219 2.886283159255981 64.47512817382813 C 3.963727712631226 59.20979690551758 5.571394443511963 54.03057479858398 7.664727687835693 49.08146286010742 C 9.719949722290039 44.22246551513672 12.26372814178467 39.53590774536133 15.2253942489624 35.15224075317383 C 18.15861701965332 30.81035232543945 21.52728271484375 26.72757530212402 25.23772811889648 23.01712989807129 C 28.94817161560059 19.30679702758789 33.03105926513672 15.93813037872314 37.37283706665039 13.00479698181152 C 41.75661468505859 10.04324150085449 46.44306182861328 7.499575138092041 51.30217361450195 5.444353103637695 C 56.25128173828125 3.351019620895386 61.43039321899414 1.743352890014648 66.69561767578125 0.6659084558486938 C 72.09772491455078 -0.4395360052585602 77.65739440917969 -0.9999804496765137 83.22028350830078 -0.9999804496765137 L 329.7798461914063 -0.9999804496765137 C 335.3428344726563 -0.9999804496765137 340.9026184082031 -0.4395360052585602 346.3047180175781 0.6659084558486938 C 351.570068359375 1.743352890014648 356.7492980957031 3.351019620895386 361.6983947753906 5.444353103637695 C 366.5574035644531 7.499575138092041 371.2439575195313 10.04324150085449 375.6276245117188 13.00479698181152 C 379.9695129394531 15.93813037872314 384.0522766113281 19.30679702758789 387.7627258300781 23.01712989807129 C 391.4730529785156 26.72757530212402 394.8417358398438 30.81035232543945 397.7750549316406 35.15224075317383 C 400.7366027832031 39.53590774536133 403.2802734375 44.22246551513672 405.3355102539063 49.08146286010742 C 407.4288330078125 54.03057479858398 409.0364990234375 59.20979690551758 410.1139526367188 64.47512817382813 C 411.2193908691406 69.87724304199219 411.7798461914063 75.43701934814453 411.7798461914063 81.00002288818359 L 411.7798461914063 191.1085815429688 L 413.0001831054688 191.1085815429688 L 414.0001831054688 191.1085815429688 L 414.0001831054688 192.1085815429688 L 414.0001831054688 287.0514526367188 L 414.0001831054688 288.0514526367188 L 413.0001831054688 288.0514526367188 L 411.7798461914063 288.0514526367188 L 411.7798461914063 748.9998168945313 C 411.7798461914063 754.5628051757813 411.2193908691406 760.12255859375 410.1139526367188 765.524658203125 C 409.0364990234375 770.7900390625 407.4288330078125 775.96923828125 405.3355102539063 780.9183349609375 C 403.2802734375 785.7774658203125 400.7366027832031 790.4639282226563 397.7750549316406 794.84765625 C 394.8417358398438 799.189453125 391.4730529785156 803.272216796875 387.7627258300781 806.982666015625 C 384.0522766113281 810.693115234375 379.9695129394531 814.0617065429688 375.6276245117188 816.9949951171875 C 371.2439575195313 819.9566040039063 366.5574035644531 822.500244140625 361.6983947753906 824.5554809570313 C 356.7492980957031 826.6488037109375 351.570068359375 828.2564697265625 346.3047180175781 829.3339233398438 C 340.9026184082031 830.4393310546875 335.3428344726563 830.9998168945313 329.7798461914063 830.9998168945313 Z" stroke="none" fill="rgba(201,209,219,0.11)"/>
      </g>
    </g>
    <g id="body-border" transform="translate(1239 5544)" fill="none" stroke="#707070" stroke-miterlimit="10" stroke-width="1" opacity="0.249">
      <rect width="409" height="829" rx="81" stroke="none"/>
      <rect x="0.5" y="0.5" width="408" height="828" rx="80.5" fill="none"/>
    </g>
    <g id="Border" transform="translate(1246 5551)" fill="none" stroke="#707070" stroke-miterlimit="10" stroke-width="1" opacity="0.249">
      <rect width="396" height="816" rx="71" stroke="none"/>
      <rect x="0.5" y="0.5" width="395" height="815" rx="70.5" fill="none"/>
    </g>
    <g id="Group_1275" data-name="Group 1275" transform="translate(-38 -57)">
      <text id="Bloom" transform="translate(1482 6104)" fill="#15354b" font-size="35" font-family="SegoeUI, Segoe UI" letter-spacing="-0.03em"><tspan x="-57.672" y="0">BLOOM</tspan></text>
      <text id="Browser" transform="translate(1407 6151)" fill="#15354b" font-size="35" font-family="SegoeUI, Segoe UI" letter-spacing="-0.03em"><tspan x="0" y="0">BROWSER</tspan></text>
    </g>
    <g id="Logo" transform="translate(142.846 -11139.563)">
      <g id="Group_1308" data-name="Group 1308" transform="translate(1200 16953.064)">
        <path id="Path_3911" data-name="Path 3911" d="M459.215,96a3.215,3.215,0,0,0,0,6.43,12.875,12.875,0,0,1,12.861,12.861,3.215,3.215,0,1,0,6.43,0A19.312,19.312,0,0,0,459.215,96Z" transform="translate(-276.352 -24.89)" fill="#42b883"/>
        <path id="Path_3910" data-name="Path 3910" d="M165.574,135.037h-8.03a9.657,9.657,0,0,1-9.646-9.646V112.531a3.219,3.219,0,0,0-3.215-3.215H118.962a3.219,3.219,0,0,0-3.215,3.215v12.861a9.657,9.657,0,0,1-9.646,9.646H95.132a9.638,9.638,0,0,1-9.359-7.309c-2.033-8.116-7.823-28.481-17.657-42.266A58.772,58.772,0,0,0,54.6,71.94C30.079,70.152,0,59.774,0,34.69,0,23.657,7.559,16.144,13.9,11.784A10.375,10.375,0,0,0,18.36,3.215,3.215,3.215,0,0,1,21.575,0H34.69a3.215,3.215,0,0,1,3.215,3.215c0,.609-.114,14.978-10.018,21.1-4.023,2.486-5.381,4.465-5.381,7.841,0,6.8,14.893,8.743,19.967.807,3.113-4.869,4.772-14.131,4.788-14.224a3.215,3.215,0,0,1,.979-1.8C61.764,4.377,74.3-.876,85.507,1.312c11.771,2.3,18.026,12.1,19.781,15.289l1.659.906c40.357-16.975,89.8,14.632,82.7,56.973-2.221,13.245-14.193,51.616-14.824,53.633a9.693,9.693,0,0,1-9.253,6.923Z" transform="translate(0 29.313)" fill="#81e6b8"/>
        <path id="Path_3913" data-name="Path 3913" d="M296.23,94.253a107.7,107.7,0,0,1-103.389,64.906,175.008,175.008,0,0,1,8.271,24.943,9.638,9.638,0,0,0,9.359,7.308H221.44a9.657,9.657,0,0,0,9.646-9.646V168.9a3.219,3.219,0,0,1,3.215-3.215h25.721a3.219,3.219,0,0,1,3.215,3.215v12.861a9.657,9.657,0,0,0,9.646,9.646h8.03a9.693,9.693,0,0,0,9.253-6.923c.631-2.018,12.6-40.388,14.824-53.633a48.142,48.142,0,0,0-8.76-36.6Z" transform="translate(-115.339 -27.06)" fill="#4bd195"/>
        <path id="Path_3914" data-name="Path 3914" d="M192.663,86a71.19,71.19,0,0,1-16.341-2.05,3.215,3.215,0,0,1-1.667-1.068c-.322-.393-7.824-9.705-1.751-18.869,22.54-35.939,21.271-34.107,21.765-34.6,7.515-7.5,19.13-8.835,27.619-3.173,9.943,6.631,12.409,20.457,5.5,30.82L214.193,77.438C209.658,84.236,200.72,86,192.663,86Z" transform="translate(-101.999 15.708)" fill="#4bd195"/>
        <path id="Path_3915" data-name="Path 3915" d="M208.888,80.766a3.215,3.215,0,0,1,4.547,0,5.028,5.028,0,0,0,7.445-.364l13.347-16.247c3.928-5.345-.935-5.129-1.5-4.564a3.215,3.215,0,0,1-4.547-4.547c6.094-6.1,20.029,1.079,11.164,13.005-.085.116.732-.887-13.495,16.434-7.517,9.152-21.795,1.117-16.96-3.718Z" transform="translate(-124.352 -2.283)" fill="#42b883"/>
        <circle id="Ellipse_204" data-name="Ellipse 204" cx="3" cy="3" r="3" transform="translate(58.154 55.498)" fill="#4bd195"/>
        <path id="Path_3916" data-name="Path 3916" d="M224.076,294.43H211.215a3.215,3.215,0,1,1,0-6.43h12.861a3.215,3.215,0,1,1,0,6.43Z" transform="translate(-124.405 -142.941)" fill="#42b883"/>
        <path id="Path_3917" data-name="Path 3917" d="M380.861,294.43h-9.646a3.215,3.215,0,0,1,0-6.43h9.646a3.215,3.215,0,1,1,0,6.43Z" transform="translate(-220.102 -142.941)" fill="#42b883"/>
        <g id="Group_1297" data-name="Group 1297" transform="translate(138.316 59.8)">
          <ellipse id="Ellipse_205" data-name="Ellipse 205" cx="9.5" cy="10" rx="9.5" ry="10" transform="translate(1.838 -0.303)" fill="#e0f7fa"/>
          <ellipse id="Ellipse_206" data-name="Ellipse 206" cx="5" cy="4.5" rx="5" ry="4.5" transform="translate(-0.162 24.697)" fill="#e0f7fa"/>
        </g>
        <g id="lotus" transform="translate(10.851 0)">
          <path id="Path_3924" data-name="Path 3924" d="M35.377,329.054a12.794,12.794,0,0,0-4.952-3.09,1.045,1.045,0,0,0-1.025.2,12.337,12.337,0,0,1-11.271,2.623,1.05,1.05,0,0,0-.575,0,12.337,12.337,0,0,1-11.271-2.623,1.045,1.045,0,0,0-1.025-.2,12.794,12.794,0,0,0-4.952,3.09,1.046,1.046,0,0,0,0,1.479,12.923,12.923,0,0,0,17.535.684,12.923,12.923,0,0,0,17.535-.684,1.046,1.046,0,0,0,0-1.479Z" transform="translate(0 -307.753)" fill="#ff4380"/>
          <path id="Path_3925" data-name="Path 3925" d="M273.535,329.054a12.794,12.794,0,0,0-4.952-3.09,1.045,1.045,0,0,0-1.025.2,12.337,12.337,0,0,1-11.271,2.623,1.045,1.045,0,0,0-.287-.04v2.469a12.923,12.923,0,0,0,17.535-.684,1.046,1.046,0,0,0,0-1.479Z" transform="translate(-238.158 -307.753)" fill="#f7006a"/>
          <path id="Path_3926" data-name="Path 3926" d="M40.212,225.081a14.464,14.464,0,0,0-6.854-.135,1.045,1.045,0,0,0-.769.708A13.3,13.3,0,0,1,23.6,234.46a13.3,13.3,0,0,1-8.985-8.805,1.045,1.045,0,0,0-.769-.708A14.463,14.463,0,0,0,7,225.081a1.046,1.046,0,0,0-.766,1.288A14.4,14.4,0,0,0,23.6,236.623a14.4,14.4,0,0,0,17.374-10.255,1.046,1.046,0,0,0-.766-1.288Z" transform="translate(-5.762 -213.505)" fill="#ff759d"/>
          <path id="Path_3927" data-name="Path 3927" d="M272.608,225.081a14.465,14.465,0,0,0-6.854-.135,1.045,1.045,0,0,0-.769.708A13.3,13.3,0,0,1,256,234.46v2.164a14.4,14.4,0,0,0,17.374-10.255,1.046,1.046,0,0,0-.766-1.288Z" transform="translate(-238.158 -213.505)" fill="#ff4380"/>
          <path id="Path_3928" data-name="Path 3928" d="M111.2,115.251a1.045,1.045,0,0,0-1.28-.739,15.433,15.433,0,0,0-6.687,3.773,1.045,1.045,0,0,0-.29,1,13.8,13.8,0,0,1-2.9,12.269,13.8,13.8,0,0,1-2.9-12.269,1.045,1.045,0,0,0-.29-1,15.433,15.433,0,0,0-6.687-3.773,1.045,1.045,0,0,0-1.28.739,15.4,15.4,0,0,0,10.886,18.856,1.049,1.049,0,0,0,.542,0A15.4,15.4,0,0,0,111.2,115.251Z" transform="translate(-82.197 -111.058)" fill="#ff4380"/>
          <path id="Path_3929" data-name="Path 3929" d="M267.151,115.251a1.045,1.045,0,0,0-1.28-.739,15.433,15.433,0,0,0-6.686,3.773,1.045,1.045,0,0,0-.29,1,13.8,13.8,0,0,1-2.9,12.269v2.584a1.052,1.052,0,0,0,.272-.036,15.4,15.4,0,0,0,10.886-18.856Z" transform="translate(-238.152 -111.058)" fill="#f7006a"/>
          <path id="Path_3930" data-name="Path 3930" d="M184,88.5a1.047,1.047,0,0,1-.74-.306,15.892,15.892,0,0,1,0-22.473,1.046,1.046,0,0,1,1.479,0,15.892,15.892,0,0,1,0,22.473A1.045,1.045,0,0,1,184,88.5Z" transform="translate(-166.157 -65.419)" fill="#ff759d"/>
          <path id="Path_3931" data-name="Path 3931" d="M255.993,88.5V65.419a1.047,1.047,0,0,1,.74.306,15.892,15.892,0,0,1,0,22.473A1.045,1.045,0,0,1,255.993,88.5Z" transform="translate(-238.151 -65.419)" fill="#ff4380"/>
          <path id="Path_3932" data-name="Path 3932" d="M256,381.669h0Z" transform="translate(-238.158 -359.628)"/>
        </g>
      </g>
    </g>
  </g>
</svg>
