<svg xmlns="http://www.w3.org/2000/svg" xmlns:xlink="http://www.w3.org/1999/xlink" width="475" height="892" viewBox="0 0 475 892"><defs><filter id="a" x="0" y="0" width="475" height="892" filterUnits="userSpaceOnUse"><feOffset dy="6" input="SourceAlpha"/><feGaussianBlur stdDeviation="10" result="b"/><feFlood flood-color="#7d8a9f" flood-opacity="0.4"/><feComposite operator="in" in2="b"/><feComposite in="SourceGraphic"/></filter><linearGradient id="c" x1="0.79" y1="0.095" x2="0.188" y2="0.892" gradientUnits="objectBoundingBox"><stop offset="0" stop-color="#4bd195"/><stop offset="1" stop-color="#4bd195"/></linearGradient></defs><g transform="translate(-1206 -5519)"><g transform="matrix(1, 0, 0, 1, 1206, 5519)" filter="url(#a)"><g transform="translate(31 25)" fill="#fff" stroke-miterlimit="10"><path d="M83.22,830a81,81,0,0,1-81-81V306.336H0V247H2.22V230.679H0V171.34H2.22V143.155H0V112.744H2.22V81a81,81,0,0,1,81-81H329.78a81,81,0,0,1,81,81V192.109H413v94.943h-2.22V749a81,81,0,0,1-81,81Z" stroke="none"/><path d="M 329.7798461914063 829.9998168945313 C 374.5151672363281 829.9998168945313 410.7798461914063 793.7352294921875 410.7798461914063 748.9998168945313 L 410.7798461914063 287.0514526367188 L 413.0001831054688 287.0514526367188 L 413.0001831054688 192.1085815429688 L 410.7798461914063 192.1085815429688 L 410.7798461914063 81.00002288818359 C 410.7798461914063 36.26468658447266 374.5151672363281 1.955837615241762e-05 329.7798461914063 1.955837615241762e-05 L 83.22028350830078 1.955837615241762e-05 C 38.48583984375 1.955837615241762e-05 2.220283269882202 36.26468658447266 2.220283269882202 81.00002288818359 L 2.220283269882202 112.7439117431641 L 6.103515625e-05 112.7439117431641 L 6.103515625e-05 143.1549072265625 L 2.220283269882202 143.1549072265625 L 2.220283269882202 171.3402404785156 L 6.103515625e-05 171.3402404785156 L 6.103515625e-05 230.6790161132813 L 2.220283269882202 230.6790161132813 L 2.220283269882202 246.9969024658203 L 6.103515625e-05 246.9969024658203 L 6.103515625e-05 306.335693359375 L 2.220283269882202 306.335693359375 L 2.220283269882202 748.9998168945313 C 2.220283269882202 793.7352294921875 38.48583984375 829.9998168945313 83.22028350830078 829.9998168945313 L 329.7798461914063 829.9998168945313 M 329.7798461914063 830.9998168945313 L 83.22028350830078 830.9998168945313 C 77.65739440917969 830.9998168945313 72.09772491455078 830.4393310546875 66.69561767578125 829.3339233398438 C 61.43039321899414 828.2564697265625 56.25128173828125 826.6488037109375 51.30217361450195 824.5554809570313 C 46.44306182861328 822.500244140625 41.75661468505859 819.9566040039063 37.37283706665039 816.9949951171875 C 33.03105926513672 814.0617065429688 28.94817161560059 810.693115234375 25.23772811889648 806.982666015625 C 21.52728271484375 803.272216796875 18.15861701965332 799.189453125 15.2253942489624 794.84765625 C 12.26372814178467 790.4639282226563 9.719949722290039 785.7774658203125 7.664727687835693 780.9183349609375 C 5.571394443511963 775.96923828125 3.963727712631226 770.7900390625 2.886283159255981 765.524658203125 C 1.780838847160339 760.12255859375 1.220283269882202 754.5628051757813 1.220283269882202 748.9998168945313 L 1.220283269882202 307.335693359375 L 6.103515625e-05 307.335693359375 L -0.99993896484375 307.335693359375 L -0.99993896484375 306.335693359375 L -0.99993896484375 246.9969024658203 L -0.99993896484375 245.9969024658203 L 6.103515625e-05 245.9969024658203 L 1.220283269882202 245.9969024658203 L 1.220283269882202 231.6790161132813 L 6.103515625e-05 231.6790161132813 L -0.99993896484375 231.6790161132813 L -0.99993896484375 230.6790161132813 L -0.99993896484375 171.3402404785156 L -0.99993896484375 170.3402404785156 L 6.103515625e-05 170.3402404785156 L 1.220283269882202 170.3402404785156 L 1.220283269882202 144.1549072265625 L 6.103515625e-05 144.1549072265625 L -0.99993896484375 144.1549072265625 L -0.99993896484375 143.1549072265625 L -0.99993896484375 112.7439117431641 L -0.99993896484375 111.7439117431641 L 6.103515625e-05 111.7439117431641 L 1.220283269882202 111.7439117431641 L 1.220283269882202 81.00002288818359 C 1.220283269882202 75.43701934814453 1.780838847160339 69.87724304199219 2.886283159255981 64.47512817382813 C 3.963727712631226 59.20979690551758 5.571394443511963 54.03057479858398 7.664727687835693 49.08146286010742 C 9.719949722290039 44.22246551513672 12.26372814178467 39.53590774536133 15.2253942489624 35.15224075317383 C 18.15861701965332 30.81035232543945 21.52728271484375 26.72757530212402 25.23772811889648 23.01712989807129 C 28.94817161560059 19.30679702758789 33.03105926513672 15.93813037872314 37.37283706665039 13.00479698181152 C 41.75661468505859 10.04324150085449 46.44306182861328 7.499575138092041 51.30217361450195 5.444353103637695 C 56.25128173828125 3.351019620895386 61.43039321899414 1.743352890014648 66.69561767578125 0.6659084558486938 C 72.09772491455078 -0.4395360052585602 77.65739440917969 -0.9999804496765137 83.22028350830078 -0.9999804496765137 L 329.7798461914063 -0.9999804496765137 C 335.3428344726563 -0.9999804496765137 340.9026184082031 -0.4395360052585602 346.3047180175781 0.6659084558486938 C 351.570068359375 1.743352890014648 356.7492980957031 3.351019620895386 361.6983947753906 5.444353103637695 C 366.5574035644531 7.499575138092041 371.2439575195313 10.04324150085449 375.6276245117188 13.00479698181152 C 379.9695129394531 15.93813037872314 384.0522766113281 19.30679702758789 387.7627258300781 23.01712989807129 C 391.4730529785156 26.72757530212402 394.8417358398438 30.81035232543945 397.7750549316406 35.15224075317383 C 400.7366027832031 39.53590774536133 403.2802734375 44.22246551513672 405.3355102539063 49.08146286010742 C 407.4288330078125 54.03057479858398 409.0364990234375 59.20979690551758 410.1139526367188 64.47512817382813 C 411.2193908691406 69.87724304199219 411.7798461914063 75.43701934814453 411.7798461914063 81.00002288818359 L 411.7798461914063 191.1085815429688 L 413.0001831054688 191.1085815429688 L 414.0001831054688 191.1085815429688 L 414.0001831054688 192.1085815429688 L 414.0001831054688 287.0514526367188 L 414.0001831054688 288.0514526367188 L 413.0001831054688 288.0514526367188 L 411.7798461914063 288.0514526367188 L 411.7798461914063 748.9998168945313 C 411.7798461914063 754.5628051757813 411.2193908691406 760.12255859375 410.1139526367188 765.524658203125 C 409.0364990234375 770.7900390625 407.4288330078125 775.96923828125 405.3355102539063 780.9183349609375 C 403.2802734375 785.7774658203125 400.7366027832031 790.4639282226563 397.7750549316406 794.84765625 C 394.8417358398438 799.189453125 391.4730529785156 803.272216796875 387.7627258300781 806.982666015625 C 384.0522766113281 810.693115234375 379.9695129394531 814.0617065429688 375.6276245117188 816.9949951171875 C 371.2439575195313 819.9566040039063 366.5574035644531 822.500244140625 361.6983947753906 824.5554809570313 C 356.7492980957031 826.6488037109375 351.570068359375 828.2564697265625 346.3047180175781 829.3339233398438 C 340.9026184082031 830.4393310546875 335.3428344726563 830.9998168945313 329.7798461914063 830.9998168945313 Z" stroke="none" fill="rgba(201,209,219,0.11)"/></g></g><g transform="translate(1239 5544)" fill="none" stroke="#707070" stroke-miterlimit="10" stroke-width="1" opacity="0.249"><rect width="409" height="829" rx="81" stroke="none"/><rect x="0.5" y="0.5" width="408" height="828" rx="80.5" fill="none"/></g><g transform="translate(1246 5551)" fill="none" stroke="#707070" stroke-miterlimit="10" stroke-width="1" opacity="0.249"><rect width="396" height="816" rx="71" stroke="none"/><rect x="0.5" y="0.5" width="395" height="815" rx="70.5" fill="none"/></g><g transform="translate(-228.5 -1173)"><path d="M81.965,175.687a87.441,87.441,0,0,1-21.487-2.662,88.591,88.591,0,0,1-25.366-13.454A89.321,89.321,0,0,1,15.49,138.953a66.609,66.609,0,0,0,13.767-3.2,65.372,65.372,0,0,0,15.091-7.565,34.077,34.077,0,0,0,3.623,7.57,35.64,35.64,0,0,0,5.453,6.59,37.662,37.662,0,0,0,26.114,10.289,52.193,52.193,0,0,0,8.979-.775,50.386,50.386,0,0,0,8.538-2.281,48.94,48.94,0,0,0,15.1-8.814c.718.041,1.448.062,2.171.062a37.695,37.695,0,0,0,30.484-15.53,57.943,57.943,0,0,1-6.157,17.555,61.017,61.017,0,0,1-11.614,15.077c-.529.5-1.019.953-1.5,1.377A65.283,65.283,0,0,1,81.965,175.687Zm30.64-1.264h0c1.7-.794,3.374-1.661,4.986-2.579a69.731,69.731,0,0,0,9.181-6.242l1.653,2.746A88.435,88.435,0,0,1,112.6,174.423Zm20.839-8.785h0l-2.314-3.843a64.092,64.092,0,0,0,20.348-46.739v-5.617a38.058,38.058,0,0,0,.523-6.292,37.525,37.525,0,0,0-8.488-23.825,85.044,85.044,0,0,0,14.677-18.9,81.2,81.2,0,0,0,7.169-16.7,88.9,88.9,0,0,1-31.915,121.917ZM79.537,147.144A31.779,31.779,0,0,1,57.5,138.463a29.912,29.912,0,0,1-5.151-6.454,28.545,28.545,0,0,1-3.094-7.5,62.546,62.546,0,0,0,11.927-13.058,59.544,59.544,0,0,0,7.677-15.907h8.368V96.5a38.044,38.044,0,0,0-.585,6.648,37.7,37.7,0,0,0,27.905,36.4c-.65.443-1.316.872-1.982,1.274a43.4,43.4,0,0,1-7.155,3.471,44.368,44.368,0,0,1-7.73,2.129A45.973,45.973,0,0,1,79.537,147.144ZM12.2,133.769h0A88.685,88.685,0,0,1,5.817,120.5c1.289-.2,2.581-.458,3.843-.756a52.479,52.479,0,0,0,8.783-2.907,51.839,51.839,0,0,0,7.974-4.314,50.977,50.977,0,0,0,7-5.562,49.621,49.621,0,0,0,5.854-6.65,48.038,48.038,0,0,0,4.543-7.58,46.718,46.718,0,0,0,3.065-8.351A46.246,46.246,0,0,0,48.3,75.422H65.688v2.914a52.989,52.989,0,0,1-4.15,20.588,54.693,54.693,0,0,1-4.885,9.092,56.567,56.567,0,0,1-6.49,8.034,58.227,58.227,0,0,1-7.892,6.784,59.347,59.347,0,0,1-9.093,5.343,60.085,60.085,0,0,1-10.092,3.709A61,61,0,0,1,12.2,133.769ZM3.987,115.215h0A88.842,88.842,0,0,1,161.112,37.2c-.066.285-.124.532-.178.758-.543,2.257-1.2,4.517-1.952,6.718a76.585,76.585,0,0,1-5.656,12.651,78.955,78.955,0,0,1-7.791,11.41,81.24,81.24,0,0,1-5.925,6.477,37.685,37.685,0,0,0-11.5-7.144,37.5,37.5,0,0,0-6.669-1.931,38.008,38.008,0,0,0-16.568.524A37.6,37.6,0,0,0,88.91,75.33,37.91,37.91,0,0,0,83,82.2V37.548C83,21.305,69.108,8.091,52.032,8.091v5.489c13.894,0,25.2,10.752,25.2,23.969V90.059H70.269c.391-1.907.689-3.852.887-5.782a58.535,58.535,0,0,0,.3-5.942v-8.4H42.607v2.745a40.95,40.95,0,0,1-3.191,15.869,42.228,42.228,0,0,1-3.755,7.011,43.656,43.656,0,0,1-4.991,6.2A44.955,44.955,0,0,1,24.6,107a45.835,45.835,0,0,1-6.994,4.135,46.46,46.46,0,0,1-7.766,2.882,47.093,47.093,0,0,1-5.852,1.2Zm24.6-73.685a4.924,4.924,0,1,0,3.482,1.442A4.893,4.893,0,0,0,28.588,41.53Z" transform="translate(1583.499 7030)" fill="url(#c)"/><path d="M32.664,65.327a32.9,32.9,0,0,1-6.583-.664A32.485,32.485,0,0,1,14.4,59.749,32.76,32.76,0,0,1,2.567,45.378a32.5,32.5,0,0,1-1.9-6.131,32.982,32.982,0,0,1,0-13.166A32.484,32.484,0,0,1,5.578,14.4,32.76,32.76,0,0,1,19.949,2.567a32.5,32.5,0,0,1,6.131-1.9,32.982,32.982,0,0,1,13.166,0,32.483,32.483,0,0,1,11.68,4.915A32.759,32.759,0,0,1,62.76,19.949a32.5,32.5,0,0,1,1.9,6.131,32.983,32.983,0,0,1,0,13.166,32.483,32.483,0,0,1-4.915,11.68A32.758,32.758,0,0,1,45.378,62.76a32.5,32.5,0,0,1-6.131,1.9A32.9,32.9,0,0,1,32.664,65.327Zm0-48.422A15.687,15.687,0,0,0,23.853,19.6a15.8,15.8,0,0,0-5.709,6.933A15.738,15.738,0,0,0,19.6,41.474a15.8,15.8,0,0,0,6.933,5.709,15.738,15.738,0,0,0,14.945-1.453A15.8,15.8,0,0,0,47.184,38.8a15.738,15.738,0,0,0-1.453-14.945A15.8,15.8,0,0,0,38.8,18.143,15.659,15.659,0,0,0,32.664,16.9Z" transform="translate(1664.728 7100.77)" fill="#2096f3"/><circle cx="27.5" cy="27.5" r="27.5" transform="translate(1675 7104)" fill="#2096f3"/><circle cx="19.5" cy="19.5" r="19.5" transform="translate(1675 7112)" fill="#2096f3"/></g><g transform="translate(-41 -6)"><text transform="translate(1424 6106)" fill="#15354b" font-size="35" font-family="SegoeUI, Segoe UI" letter-spacing="-0.03em"><tspan x="0" y="0">BLOOM</tspan></text><text transform="translate(1397 6151)" fill="#15354b" font-size="35" font-family="SegoeUI, Segoe UI" letter-spacing="-0.03em"><tspan x="0" y="0">BROWSER</tspan></text></g></g></svg>