<svg xmlns="http://www.w3.org/2000/svg" xmlns:xlink="http://www.w3.org/1999/xlink" width="461.535" height="461.889" viewBox="0 0 461.535 461.889"><defs><filter id="a" x="0" y="0" width="461.535" height="461.535" filterUnits="userSpaceOnUse"><feOffset dx="10" dy="20" input="SourceAlpha"/><feGaussianBlur stdDeviation="15" result="b"/><feFlood flood-opacity="0.09"/><feComposite operator="in" in2="b"/><feComposite in="SourceGraphic"/></filter><filter id="c" x="12" y="246.887" width="438" height="215.002" filterUnits="userSpaceOnUse"><feOffset dx="10" dy="20" input="SourceAlpha"/><feGaussianBlur stdDeviation="15" result="d"/><feFlood flood-opacity="0.09"/><feComposite operator="in" in2="d"/><feComposite in="SourceGraphic"/></filter></defs><g transform="translate(-139 -5686.112)"><g transform="matrix(1, 0, 0, 1, 139, 5686.11)" filter="url(#a)"><circle cx="185.768" cy="185.768" r="185.768" transform="translate(35 25)" fill="#eff8ff"/></g><g transform="matrix(1, 0, 0, 1, 139, 5686.11)" filter="url(#c)"><path d="M-18618.668-2379.611A185.867,185.867,0,0,1-18784.5-2498.1v-5.513h347v4.3a185.873,185.873,0,0,1-166.3,119.705Z" transform="translate(18832 2776)" fill="#a5a5a5" stroke="rgba(0,0,0,0)" stroke-miterlimit="10" stroke-width="1"/></g><g transform="translate(236 5753.784)"><path d="M236.418,229.644V94.786a11.57,11.57,0,0,0-11.57-11.57H22.755a11.57,11.57,0,0,0-11.57,11.57V229.644H2.49A2.49,2.49,0,0,0,0,232.136V234.1a16.232,16.232,0,0,0,16.232,16.232H231.371A16.232,16.232,0,0,0,247.6,234.1v-1.965a2.49,2.49,0,0,0-2.49-2.491Z" fill="#c7d5e0"/><path d="M458.734,388.494v1.964A16.233,16.233,0,0,1,442.5,406.691H408.855V386h47.388A2.491,2.491,0,0,1,458.734,388.494Z" transform="translate(-211.133 -156.359)" fill="#c7d5e0"/><path d="M249.279,231.091H51.092V120.516a7.285,7.285,0,0,1,7.284-7.284H241.995a7.284,7.284,0,0,1,7.284,7.284V231.091Z" transform="translate(-26.384 -15.5)" fill="#fff"/><path d="M425.265,120.516V231.09h-26.1V120.516a7.281,7.281,0,0,0-7.283-7.283h26.1A7.283,7.283,0,0,1,425.265,120.516Z" transform="translate(-202.37 -15.501)" fill="#fff"/><path d="M251.642,396.346H201.558a2.491,2.491,0,0,1-2.491-2.491V386h55.066v7.853A2.49,2.49,0,0,1,251.642,396.346Z" transform="translate(-102.798 -156.359)" fill="#f5d647"/></g><g transform="translate(-224 52)"><g transform="translate(556 5814.502)"><g transform="translate(0 0)"><path d="M456.9,96a.9.9,0,0,0,0,1.807,3.618,3.618,0,0,1,3.614,3.614.9.9,0,1,0,1.807,0A5.427,5.427,0,0,0,456.9,96Z" transform="translate(-405.518 -76.018)" fill="#42b883"/><path d="M46.527,37.946H44.271a2.714,2.714,0,0,1-2.71-2.71V31.622a.9.9,0,0,0-.9-.9H33.429a.9.9,0,0,0-.9.9v3.614a2.714,2.714,0,0,1-2.71,2.71H26.733a2.708,2.708,0,0,1-2.63-2.054c-.571-2.281-2.2-8-4.962-11.877a16.515,16.515,0,0,0-3.8-3.8C8.452,19.713,0,16.8,0,9.748c0-3.1,2.124-5.212,3.906-6.437A2.915,2.915,0,0,0,5.159.9a.9.9,0,0,1,.9-.9H9.748a.9.9,0,0,1,.9.9c0,.171-.032,4.209-2.815,5.928-1.131.7-1.512,1.255-1.512,2.2,0,1.911,4.185,2.457,5.611.227a13.907,13.907,0,0,0,1.346-4,.9.9,0,0,1,.275-.506C17.356,1.23,20.88-.246,24.028.369a8.547,8.547,0,0,1,5.558,4.3l.466.255C41.393.15,55.288,9.031,53.293,20.93,52.669,24.652,49.3,35.434,49.128,36a2.724,2.724,0,0,1-2.6,1.946Z" transform="translate(0 8.237)" fill="#81e6b8"/><path d="M221.895,94.253a30.264,30.264,0,0,1-29.053,18.239,49.177,49.177,0,0,1,2.324,7.009,2.708,2.708,0,0,0,2.63,2.054h3.082a2.714,2.714,0,0,0,2.71-2.71V115.23a.9.9,0,0,1,.9-.9h7.228a.9.9,0,0,1,.9.9v3.614a2.714,2.714,0,0,0,2.71,2.71h2.257a2.724,2.724,0,0,0,2.6-1.946c.177-.567,3.541-11.349,4.166-15.071a13.528,13.528,0,0,0-2.462-10.285Z" transform="translate(-171.063 -75.371)" fill="#4bd195"/><path d="M176.755,40.522a20,20,0,0,1-4.592-.576.9.9,0,0,1-.469-.3c-.09-.11-2.2-2.727-.492-5.3,6.334-10.1,5.977-9.584,6.116-9.723a6.073,6.073,0,0,1,9.306,7.769l-3.819,5.726C181.531,40.026,179.019,40.522,176.755,40.522Z" transform="translate(-151.278 -11.941)" fill="#4bd195"/><path d="M208.185,60.678a.9.9,0,0,1,1.278,0,1.413,1.413,0,0,0,2.092-.1l3.75-4.566c1.1-1.5-.263-1.441-.422-1.282a.9.9,0,0,1-1.278-1.278c1.713-1.713,5.628.3,3.137,3.655-.024.033.206-.249-3.792,4.618-2.112,2.572-6.124.314-4.766-1.045Z" transform="translate(-184.43 -38.624)" fill="#42b883"/><circle cx="0.857" cy="0.857" r="0.857" transform="translate(16.078 15.703)" fill="#4bd195"/><path d="M212.517,289.807H208.9a.9.9,0,1,1,0-1.807h3.614a.9.9,0,0,1,0,1.807Z" transform="translate(-184.509 -247.237)" fill="#42b883"/><path d="M371.614,289.807H368.9a.9.9,0,0,1,0-1.807h2.711a.9.9,0,0,1,0,1.807Z" transform="translate(-326.44 -247.237)" fill="#42b883"/><g transform="translate(38.921 16.846)"><ellipse cx="2.57" cy="2.855" rx="2.57" ry="2.855" transform="translate(0.571 0)" fill="#e0f7fa"/><circle cx="1.428" cy="1.428" r="1.428" transform="translate(0 6.853)" fill="#e0f7fa"/></g><g transform="translate(3.049 0)"><path d="M9.941,326.792a3.6,3.6,0,0,0-1.391-.868.294.294,0,0,0-.288.057,3.467,3.467,0,0,1-3.167.737.3.3,0,0,0-.162,0,3.467,3.467,0,0,1-3.167-.737.294.294,0,0,0-.288-.057,3.6,3.6,0,0,0-1.391.868.294.294,0,0,0,0,.416,3.632,3.632,0,0,0,4.928.192,3.632,3.632,0,0,0,4.928-.192.294.294,0,0,0,0-.416Z" transform="translate(0 -320.806)" fill="#ff4380"/><path d="M260.927,326.792a3.6,3.6,0,0,0-1.391-.868.294.294,0,0,0-.288.057,3.467,3.467,0,0,1-3.167.737.293.293,0,0,0-.081-.011v.694a3.632,3.632,0,0,0,4.928-.192.294.294,0,0,0,0-.416Z" transform="translate(-250.986 -320.806)" fill="#f7006a"/><path d="M15.753,224.734a4.064,4.064,0,0,0-1.926-.038.294.294,0,0,0-.216.2,3.739,3.739,0,0,1-2.525,2.474A3.739,3.739,0,0,1,8.561,224.9a.294.294,0,0,0-.216-.2,4.064,4.064,0,0,0-1.926.038.294.294,0,0,0-.215.362,4.048,4.048,0,0,0,4.882,2.882,4.048,4.048,0,0,0,4.882-2.882.294.294,0,0,0-.215-.362Z" transform="translate(-6.073 -221.481)" fill="#ff759d"/><path d="M260.667,224.734a4.065,4.065,0,0,0-1.926-.038.294.294,0,0,0-.216.2A3.739,3.739,0,0,1,256,227.37v.608a4.048,4.048,0,0,0,4.882-2.882.294.294,0,0,0-.215-.362Z" transform="translate(-250.986 -221.482)" fill="#ff4380"/><path d="M94.774,114.694a.294.294,0,0,0-.36-.208,4.337,4.337,0,0,0-1.879,1.06.294.294,0,0,0-.082.282,3.878,3.878,0,0,1-.815,3.448,3.878,3.878,0,0,1-.815-3.448.294.294,0,0,0-.082-.282,4.337,4.337,0,0,0-1.879-1.06.294.294,0,0,0-.36.208,4.326,4.326,0,0,0,3.059,5.3.295.295,0,0,0,.152,0,4.326,4.326,0,0,0,3.059-5.3Z" transform="translate(-86.625 -113.516)" fill="#ff4380"/><path d="M259.128,114.694a.294.294,0,0,0-.36-.208,4.336,4.336,0,0,0-1.879,1.06.294.294,0,0,0-.082.282,3.878,3.878,0,0,1-.815,3.448V120a.3.3,0,0,0,.076-.01,4.326,4.326,0,0,0,3.059-5.3Z" transform="translate(-250.98 -113.516)" fill="#f7006a"/><path d="M180.121,71.906a.294.294,0,0,1-.208-.086,4.466,4.466,0,0,1,0-6.315.294.294,0,0,1,.416,0,4.466,4.466,0,0,1,0,6.315A.294.294,0,0,1,180.121,71.906Z" transform="translate(-175.107 -65.419)" fill="#ff759d"/><path d="M255.992,71.906V65.419a.294.294,0,0,1,.208.086,4.466,4.466,0,0,1,0,6.315A.294.294,0,0,1,255.992,71.906Z" transform="translate(-250.979 -65.419)" fill="#ff4380"/><path d="M256,381.669h0Z" transform="translate(-250.986 -375.475)"/></g></g></g><g transform="translate(558.891 5871.023)"><text transform="translate(25.109 7.977)" fill="#15354b" font-size="10" font-family="SegoeUI, Segoe UI" letter-spacing="-0.03em"><tspan x="-16.478" y="0">BLOOM</tspan></text><text transform="translate(25.109 21.977)" fill="#15354b" font-size="10" font-family="SegoeUI, Segoe UI" letter-spacing="-0.03em"><tspan x="-21.402" y="0">BROWSER</tspan></text></g></g></g></svg>