<svg xmlns="http://www.w3.org/2000/svg" xmlns:xlink="http://www.w3.org/1999/xlink" width="461.535" height="462.001" viewBox="0 0 461.535 462.001"><defs><filter id="a" x="0" y="0" width="461.535" height="461.535" filterUnits="userSpaceOnUse"><feOffset dx="10" dy="20" input="SourceAlpha"/><feGaussianBlur stdDeviation="15" result="b"/><feFlood flood-opacity="0.09"/><feComposite operator="in" in2="b"/><feComposite in="SourceGraphic"/></filter><filter id="c" x="12.5" y="246.999" width="438" height="215.002" filterUnits="userSpaceOnUse"><feOffset dx="10" dy="20" input="SourceAlpha"/><feGaussianBlur stdDeviation="15" result="d"/><feFlood flood-opacity="0.09"/><feComposite operator="in" in2="d"/><feComposite in="SourceGraphic"/></filter></defs><g transform="translate(-736 -5686)"><g transform="matrix(1, 0, 0, 1, 736, 5686)" filter="url(#a)"><circle cx="185.768" cy="185.768" r="185.768" transform="translate(35 25)" fill="#e8e8e8"/></g><g transform="matrix(1, 0, 0, 1, 736, 5686)" filter="url(#c)"><path d="M-18618.668-2379.611A185.867,185.867,0,0,1-18784.5-2498.1v-5.513h347v4.3a185.873,185.873,0,0,1-166.3,119.705Z" transform="translate(18832.5 2776.11)" fill="#ccc" stroke="rgba(0,0,0,0)" stroke-miterlimit="10" stroke-width="1"/></g><g transform="translate(837 5847.501)"><path d="M284.891,317.919v5.472c0,1.858-4.956,3.407-11.048,3.407s-10.944-1.5-10.944-3.356v-.619l-.1-4.336h.052c.826,1.6,5.369,2.839,10.841,2.839s11.1-1.549,11.1-3.407h.1Z" transform="translate(-236.829 -215.649)" fill="#e2a63b"/><path d="M168.069,112.074v5.421h-.1c0,1.91-5.111,3.407-11.151,3.407a26.5,26.5,0,0,1-6.969-.774l-.1.1a12.062,12.062,0,0,0-3.82-2.117v-.1l-.155-5.73c.361,1.755,5.162,3.149,11,3.149s11.2-1.5,11.2-3.356Z" transform="translate(-131.363 -30.144)" fill="#f4b844"/><path d="M168.07,82.033h0c0,1.858-5.111,3.356-11.2,3.356s-10.686-1.394-11.048-3.149c0-.052-.052-.155-.052-.207,0-1.858,4.956-3.407,11.1-3.407C163.01,78.574,168.07,80.123,168.07,82.033Z" transform="translate(-131.364)" fill="#fedb41"/><path d="M261.906,269.521h0l-.052-1.136-.1-4.646c.361,1.755,5.162,3.149,11,3.149s11-1.5,11.151-3.3h.052v5.369h-.1c0,1.858-5.008,3.407-11.1,3.407S262.732,271.121,261.906,269.521Z" transform="translate(-235.887 -166.683)" fill="#f4b844"/><path d="M188.608,315.354a11.077,11.077,0,0,0,3.046-4.749h.258c1.136.1,2.271.155,3.51.155h.516V311.9l.1,4.336h-.568a26.747,26.747,0,0,1-6.711-.723Z" transform="translate(-169.971 -209.058)" fill="#e2a63b"/><path d="M224.24,254.852v.258l.1,4.8h-.516c-1.291,0-2.478-.052-3.614-.155h-.258a10.594,10.594,0,0,0,.516-3.356,10.449,10.449,0,0,0-.258-2.22h.258c1.084.1,2.168.155,3.356.155l.465.258A.561.561,0,0,0,224.24,254.852Z" transform="translate(-198.221 -158.21)" fill="#f4b844"/><path d="M186.1,169.564a26.494,26.494,0,0,0,6.969.774c6.04,0,11.151-1.5,11.151-3.407h.1v6.092c-5.627,0-10.222,1.342-10.79,3.046l-.465-.258q-1.7,0-3.252-.155h-.258a10.42,10.42,0,0,0-3.562-6.04Z" transform="translate(-167.618 -79.581)" fill="#e2a63b"/><g transform="translate(0 87.247)"><path d="M22.044,174.711h0a11.3,11.3,0,0,0-3.665-6.143,9.809,9.809,0,0,0-3.923-2.168,9.972,9.972,0,0,0-3.252-.516,11.1,11.1,0,1,0-.207,22.2,11.324,11.324,0,0,0,7.64-2.943,11.211,11.211,0,0,0,3.1-4.9,10.281,10.281,0,0,0,.516-3.3C22.25,176.208,22.044,175.434,22.044,174.711Z" transform="translate(0 -165.883)" fill="#fedb41"/><path d="M283.9,231.936v.1c-.155,1.807-5.162,3.3-11.151,3.3s-10.635-1.394-11-3.149v-.258a.655.655,0,0,1,.052-.31c.568-1.7,5.162-3.046,10.789-3.046h.155C278.839,228.581,283.9,230.078,283.9,231.936Z" transform="translate(-235.887 -222.386)" fill="#fedb41"/></g><path d="M78.99,202.428a1.7,1.7,0,1,1,1.7-1.7,1.032,1.032,0,0,0,2.065,0,3.81,3.81,0,0,0-2.736-3.614V196.7a1.032,1.032,0,1,0-2.065,0v.413a3.605,3.605,0,0,0-2.736,3.614,3.79,3.79,0,0,0,3.769,3.769,1.7,1.7,0,1,1,0,3.407h0a1.719,1.719,0,0,1-1.7-1.7,1.032,1.032,0,1,0-2.065,0,3.763,3.763,0,0,0,2.736,3.614v.826a1.032,1.032,0,1,0,2.065,0v-.826a3.723,3.723,0,0,0,2.53-4.7A3.764,3.764,0,0,0,78.99,202.428Z" transform="translate(-67.787 -105.476)" fill="#e2a63b"/></g><g transform="translate(927.814 5867.356)"><path d="M243.656,256H241v26.556h5.311V256Z" transform="translate(-103.541 -210.678)" fill="#59c36a"/><path d="M256,256h2.656v26.556H256Z" transform="translate(-115.885 -210.678)" fill="#00a66c"/><path d="M170.522,301a13.278,13.278,0,0,0-13.278,13.278A13.278,13.278,0,0,0,143.967,301H136v2.656a13.278,13.278,0,0,0,13.278,13.278l7.967,5.311,7.967-5.311a13.278,13.278,0,0,0,13.278-13.278V301Z" transform="translate(-17.13 -247.712)" fill="#97de3d"/><path d="M277.245,303.656V301h-7.967A13.278,13.278,0,0,0,256,314.278v7.967l7.967-5.311A13.278,13.278,0,0,0,277.245,303.656Z" transform="translate(-115.885 -247.712)" fill="#97de3d"/><g transform="translate(116.214)"><path d="M144.9,0a23.989,23.989,0,1,0,23.9,24.077A24.052,24.052,0,0,0,144.9,0Z" transform="translate(-121)" fill="#fed843"/><path d="M279.9,24.077A24.052,24.052,0,0,0,256,0V47.977A23.9,23.9,0,0,0,279.9,24.077Z" transform="translate(-232.1)" fill="#fed843"/><g transform="translate(15.933 5.488)"><path d="M218.967,46.933a2.656,2.656,0,1,1,2.656-2.656h5.311a7.944,7.944,0,0,0-5.311-7.479V31h-5.311v5.8a7.948,7.948,0,0,0,2.656,15.446,2.656,2.656,0,1,1-2.656,2.656H211a7.944,7.944,0,0,0,5.311,7.479v5.8h5.311v-5.8a7.948,7.948,0,0,0-2.656-15.446Z" transform="translate(-211 -31)" fill="#fabe2c"/></g><g transform="translate(23.9 5.488)"><path d="M258.656,136.446A7.948,7.948,0,0,0,256,121v5.311a2.656,2.656,0,1,1,0,5.311v10.622h2.656Z" transform="translate(-256 -105.067)" fill="#ff9100"/><path d="M258.656,44.278h5.311a7.944,7.944,0,0,0-5.311-7.479V31H256V41.622A2.657,2.657,0,0,1,258.656,44.278Z" transform="translate(-256 -31)" fill="#ff9100"/></g></g><path d="M140.115,391h-24.93l7.082,21.422h35.695L165.044,391Z" transform="translate(0 -321.778)" fill="#edf9ff"/><path d="M280.93,391H256v21.422h17.847Z" transform="translate(-115.885 -321.778)" fill="#c0e1f0"/></g><g transform="translate(857 5745.376)"><path d="M20.1,306.48l-.67-17.975A18.649,18.649,0,0,0,16.2,278.69L4.2,261.1a24.123,24.123,0,0,1-.35-26.666L24.537,202.3l13.514,46.567L32.623,306.8,21.879,308.01A1.6,1.6,0,0,1,20.1,306.48Z" transform="translate(0 -92.279)" fill="#f1d0a5"/><path d="M435.623,308.847l.67-17.975a18.649,18.649,0,0,1,3.231-9.815l12-17.59a24.123,24.123,0,0,0,.35-26.666l-19.656-30.534-14.547,44.966,5.428,57.938,10.744,1.206A1.6,1.6,0,0,0,435.623,308.847Z" transform="translate(-249.185 -94.647)" fill="#f1d0a5"/><path d="M464.789,236.8l-19.656-30.534-2.662,10.174L455.594,236.8a24.123,24.123,0,0,1-.35,26.666l-12,17.59a18.645,18.645,0,0,0-3.231,9.815l-.7,18.669,7.443.835a1.6,1.6,0,0,0,1.777-1.531l.67-17.975a18.649,18.649,0,0,1,3.231-9.815l12-17.59A24.123,24.123,0,0,0,464.789,236.8Z" transform="translate(-262.095 -94.647)" fill="#f1b986"/><path d="M208.133,160.785H66.864a9.491,9.491,0,0,1-9.492-9.492V57.116a9.491,9.491,0,0,1,9.492-9.492h141.27a9.491,9.491,0,0,1,9.492,9.492v94.178A9.492,9.492,0,0,1,208.133,160.785Z" transform="translate(-34.228 0)" fill="#365e7d"/><path d="M421.567,47.624h-6.445a9.492,9.492,0,0,1,9.492,9.492v94.178a9.491,9.491,0,0,1-9.492,9.492h6.445a9.492,9.492,0,0,0,9.492-9.492V57.116a9.492,9.492,0,0,0-9.492-9.492Z" transform="translate(-247.662)" fill="#2b4d66"/><path d="M228.646,80.1H99.187a.533.533,0,0,0-.516.546v85.867a.532.532,0,0,0,.516.546H228.646a.532.532,0,0,0,.516-.546V80.648A.532.532,0,0,0,228.646,80.1Z" transform="translate(-58.867 -19.376)" fill="#d3effb"/><path d="M410.673,80.1h-6.9a.533.533,0,0,1,.517.546v85.867a.532.532,0,0,1-.517.546h6.9a.533.533,0,0,0,.517-.546V80.648A.533.533,0,0,0,410.673,80.1Z" transform="translate(-240.894 -19.376)" fill="#b1e4f9"/><g transform="translate(28.439 98.837)"><path d="M73.615,185.314A3.116,3.116,0,0,1,70.5,182.2v-4.5a3.117,3.117,0,1,1,6.233,0v4.5A3.117,3.117,0,0,1,73.615,185.314Z" transform="translate(-70.498 -174.579)" fill="#2b4d66"/></g><g transform="translate(50.172 113.739)"><g transform="translate(0 0)"><path d="M141.184,217.753H127.489a3.117,3.117,0,1,1,0-6.233h13.695a3.117,3.117,0,1,1,0,6.233Z" transform="translate(-124.372 -211.52)" fill="#365e7d"/><g transform="translate(0 14.148)"><path d="M153.651,252.826H127.489a3.117,3.117,0,1,1,0-6.233h26.162a3.117,3.117,0,0,1,0,6.233Z" transform="translate(-124.372 -246.593)" fill="#365e7d"/></g></g><g transform="translate(81.516 0)"><g transform="translate(12.467)"><path d="M374.163,217.753H360.468a3.117,3.117,0,0,1,0-6.233h13.695a3.117,3.117,0,1,1,0,6.233Z" transform="translate(-357.351 -211.52)" fill="#365e7d"/></g><g transform="translate(0 14.148)"><path d="M355.725,252.826H329.563a3.117,3.117,0,1,1,0-6.233h26.162a3.117,3.117,0,1,1,0,6.233Z" transform="translate(-326.446 -246.593)" fill="#365e7d"/></g></g></g><path d="M81.031,331.805l.3-13.041A22.058,22.058,0,0,1,82.562,312a18.531,18.531,0,0,0-3.188-17.887,3.32,3.32,0,0,1-.341-3.718l17.48-31.581a6.5,6.5,0,0,0-10.469-7.557L56.967,282.794l1.913,21.974,7.73,30L79.6,333.36A1.6,1.6,0,0,0,81.031,331.805Z" transform="translate(-33.986 -120.241)" fill="#f1d0a5"/><path d="M110.738,258.825a6.5,6.5,0,0,0-9.68-8.273,6.593,6.593,0,0,1,.545.474,6.5,6.5,0,0,1,1.145,7.8l-17.48,31.581a3.32,3.32,0,0,0,.342,3.718A18.532,18.532,0,0,1,88.8,312.011a22.059,22.059,0,0,0-1.227,6.759l-.224,9.633a5.488,5.488,0,0,1-4.9,5.329l-.967.1a.752.752,0,0,0-.647.935l12.994-1.407a1.6,1.6,0,0,0,1.427-1.553l.294-12.65a23.183,23.183,0,0,1,1.23-7.134,18.531,18.531,0,0,0-3.182-17.9,3.32,3.32,0,0,1-.342-3.718Z" transform="translate(-48.212 -120.247)" fill="#f1b986"/><path d="M371.28,331.805l-.3-13.041A22.058,22.058,0,0,0,369.75,312a18.531,18.531,0,0,1,3.188-17.887,3.32,3.32,0,0,0,.341-3.718L355.8,258.819a6.5,6.5,0,0,1,10.469-7.557l29.076,31.531-1.913,21.974-7.729,30-12.994-1.407A1.6,1.6,0,0,1,371.28,331.805Z" transform="translate(-211.785 -120.241)" fill="#f1d0a5"/><g transform="translate(50.943 66.527)"><path d="M145.773,112.632H129.4a3.116,3.116,0,0,1-3.117-3.117V97.6a3.116,3.116,0,0,1,3.117-3.117h16.372A3.116,3.116,0,0,1,148.89,97.6v11.916A3.117,3.117,0,0,1,145.773,112.632ZM132.517,106.4h10.139v-5.683H132.517Z" transform="translate(-126.284 -94.483)" fill="#e27d47"/><g transform="translate(0 11.916)"><path d="M153.749,145.665H129.4a3.116,3.116,0,0,1-3.117-3.117V127.14a3.116,3.116,0,0,1,3.117-3.117h24.349a3.116,3.116,0,0,1,3.117,3.117v15.409A3.117,3.117,0,0,1,153.749,145.665Zm-21.232-6.234h18.115v-9.175H132.517Z" transform="translate(-126.284 -124.023)" fill="#e27d47"/></g></g><g transform="translate(94.883 123.931)"><path d="M252.423,248.86a3.106,3.106,0,0,1-1.192-.238l-14.1-5.839a3.117,3.117,0,1,1,2.386-5.76l14.1,5.839a3.118,3.118,0,0,1-1.194,6Z" transform="translate(-235.207 -236.785)" fill="#365e7d"/></g><path d="M242.953,228.506l-5.259,5.259a5.168,5.168,0,0,1-7.308,0l-3.325-3.325a5.168,5.168,0,0,1,0-7.308l5.259-5.259Z" transform="translate(-134.561 -101.57)" fill="#ffc250"/><path d="M0,0H4.838V15.038H0Z" transform="translate(94.318 119.724) rotate(-45)" fill="#ebb044"/><path d="M252.97,208.272l13.681-6.776-17.538-17.539-6.776,13.681Z" transform="translate(-144.578 -81.337)" fill="#e27d47"/><path d="M252.6,189.283l14.851,14.851,5.325-2.637-17.538-17.539Z" transform="translate(-150.699 -81.337)" fill="#dd544f"/><g transform="translate(100.221 98.307)"><path d="M271.49,199.43a3.109,3.109,0,0,1-2.2-.913l-19.932-19.932a3.117,3.117,0,1,1,4.408-4.408l19.932,19.932a3.117,3.117,0,0,1-2.2,5.321Z" transform="translate(-248.441 -173.265)" fill="#2b4d66"/></g><g transform="translate(118.956 70.441)"><path d="M321.034,110.42H298a3.117,3.117,0,1,1,0-6.233h23.033a3.117,3.117,0,1,1,0,6.233Z" transform="translate(-294.884 -104.187)" fill="#e27d47"/></g><g transform="translate(118.956 82.919)"><path d="M333.5,141.35H298a3.117,3.117,0,1,1,0-6.233h35.5a3.117,3.117,0,1,1,0,6.233Z" transform="translate(-294.884 -135.117)" fill="#e27d47"/></g></g><g transform="translate(-2)"><g transform="translate(901 5950.001)"><g transform="translate(0 64.829)"><g transform="translate(0 0)"><path d="M378.039,335.934v5.435a2.938,2.938,0,0,1-2.938,2.938h-5.729v-1.861a6.561,6.561,0,0,1,6.512-6.512h2.154Z" transform="translate(-334.754 -318.698)" fill="#2ba037"/><path d="M43.285,160.405v8.863H41.13a6.561,6.561,0,0,0-6.512,6.512v1.861H8.667V175.78a6.561,6.561,0,0,0-6.512-6.512H0v-8.814H2.154a6.561,6.561,0,0,0,6.512-6.561v-1.861H34.618v1.812a6.561,6.561,0,0,0,6.512,6.561Z" transform="translate(0 -152.032)" fill="#3bb54a"/><g transform="translate(0 0)"><path d="M378.038,154.971v5.435h-2.154a6.561,6.561,0,0,1-6.512-6.561v-1.812H375.1A2.938,2.938,0,0,1,378.038,154.971Z" transform="translate(-334.753 -152.033)" fill="#2ba037"/><path d="M8.667,344.112v.2H2.938A2.938,2.938,0,0,1,0,341.37v-5.435H2.154a6.561,6.561,0,0,1,6.512,6.512v1.665Z" transform="translate(0 -318.699)" fill="#2ba037"/><path d="M8.667,152.229v1.665a6.561,6.561,0,0,1-6.512,6.561H0v-5.484a2.938,2.938,0,0,1,2.938-2.938H8.667v.2Z" transform="translate(0 -152.033)" fill="#2ba037"/></g></g></g><circle cx="9.45" cy="9.45" r="9.45" transform="translate(12.192 68.158)" fill="#2ba037"/><path d="M195.962,216.1a1.518,1.518,0,1,1,1.518-1.518h0a.979.979,0,1,0,1.959,0,3.476,3.476,0,0,0-2.5-3.281V211a.979.979,0,1,0-1.959,0v.294a3.427,3.427,0,0,0,.979,6.757,1.518,1.518,0,0,1,1.518,1.518h0a1.518,1.518,0,0,1-3.036,0,.979.979,0,1,0-1.959,0,3.428,3.428,0,0,0,2.5,3.281v.392a.979.979,0,1,0,1.959,0v-.392a3.428,3.428,0,0,0,2.5-3.281A3.477,3.477,0,0,0,195.962,216.1Z" transform="translate(-174.319 -139.76)" fill="#fedb41"/></g><g transform="translate(932 5971.001)"><g transform="translate(0 64.829)"><g transform="translate(0 0)"><path d="M378.039,335.934v5.435a2.938,2.938,0,0,1-2.938,2.938h-5.729v-1.861a6.561,6.561,0,0,1,6.512-6.512h2.154Z" transform="translate(-334.754 -318.698)" fill="#2ba037"/><path d="M43.285,160.405v8.863H41.13a6.561,6.561,0,0,0-6.512,6.512v1.861H8.667V175.78a6.561,6.561,0,0,0-6.512-6.512H0v-8.814H2.154a6.561,6.561,0,0,0,6.512-6.561v-1.861H34.618v1.812a6.561,6.561,0,0,0,6.512,6.561Z" transform="translate(0 -152.032)" fill="#3bb54a"/><g transform="translate(0 0)"><path d="M378.038,154.971v5.435h-2.154a6.561,6.561,0,0,1-6.512-6.561v-1.812H375.1A2.938,2.938,0,0,1,378.038,154.971Z" transform="translate(-334.753 -152.033)" fill="#2ba037"/><path d="M8.667,344.112v.2H2.938A2.938,2.938,0,0,1,0,341.37v-5.435H2.154a6.561,6.561,0,0,1,6.512,6.512v1.665Z" transform="translate(0 -318.699)" fill="#2ba037"/><path d="M8.667,152.229v1.665a6.561,6.561,0,0,1-6.512,6.561H0v-5.484a2.938,2.938,0,0,1,2.938-2.938H8.667v.2Z" transform="translate(0 -152.033)" fill="#2ba037"/></g></g></g><circle cx="9.45" cy="9.45" r="9.45" transform="translate(12.192 68.158)" fill="#2ba037"/><path d="M195.962,216.1a1.518,1.518,0,1,1,1.518-1.518h0a.979.979,0,1,0,1.959,0,3.476,3.476,0,0,0-2.5-3.281V211a.979.979,0,1,0-1.959,0v.294a3.427,3.427,0,0,0,.979,6.757,1.518,1.518,0,0,1,1.518,1.518h0a1.518,1.518,0,0,1-3.036,0,.979.979,0,1,0-1.959,0,3.428,3.428,0,0,0,2.5,3.281v.392a.979.979,0,1,0,1.959,0v-.392a3.428,3.428,0,0,0,2.5-3.281A3.477,3.477,0,0,0,195.962,216.1Z" transform="translate(-174.319 -139.76)" fill="#fedb41"/></g><g transform="translate(958 6032.5)"><circle cx="6" cy="6" r="6" transform="translate(0 0.5)" fill="#ffe14d"/><path d="M262.25,6.25A6.257,6.257,0,0,0,256,0V12.5A6.257,6.257,0,0,0,262.25,6.25Z" transform="translate(-249.75)" fill="#ffe14d"/><g transform="translate(1.489 1.489)"><path d="M65.761,70.521a4.761,4.761,0,1,1,4.761-4.761A4.766,4.766,0,0,1,65.761,70.521Z" transform="translate(-61 -61)" fill="#fb3"/></g><path d="M260.761,65.761A4.766,4.766,0,0,0,256,61v9.521A4.766,4.766,0,0,0,260.761,65.761Z" transform="translate(-249.75 -59.511)" fill="#e68a2e"/><g transform="translate(4.419 2.95)"><path d="M183.2,123.813v-1.448c.421.1.732.374.732.686a.366.366,0,0,0,.732,0,1.593,1.593,0,0,0-1.465-1.435v-.4a.366.366,0,0,0-.732,0v.4a1.435,1.435,0,1,0,0,2.87v1.448c-.421-.1-.732-.374-.732-.686a.366.366,0,1,0-.732,0,1.593,1.593,0,0,0,1.465,1.435v.4a.366.366,0,1,0,.732,0v-.4a1.435,1.435,0,1,0,0-2.87Zm-1.465-.762c0-.311.311-.582.732-.686v1.372C182.044,123.634,181.732,123.363,181.732,123.051Zm1.465,2.883v-1.372c.421.1.732.374.732.686S183.618,125.831,183.2,125.934Z" transform="translate(-181 -120.854)" fill="#ffe14d"/></g><path d="M256.366,127.083v-.4a1.435,1.435,0,1,0,0-2.87v-1.448c.421.1.732.374.732.686a.366.366,0,0,0,.732,0,1.593,1.593,0,0,0-1.465-1.435v-.4a.366.366,0,0,0-.366-.366v6.6A.366.366,0,0,0,256.366,127.083Zm0-2.52c.421.1.732.374.732.686s-.311.582-.732.686Z" transform="translate(-249.75 -117.904)" fill="#ffe14d"/></g><g transform="translate(967 5950.001)"><g transform="translate(0 64.829)"><g transform="translate(0 0)"><path d="M378.039,335.934v5.435a2.938,2.938,0,0,1-2.938,2.938h-5.729v-1.861a6.561,6.561,0,0,1,6.512-6.512h2.154Z" transform="translate(-334.754 -318.698)" fill="#2ba037"/><path d="M43.285,160.405v8.863H41.13a6.561,6.561,0,0,0-6.512,6.512v1.861H8.667V175.78a6.561,6.561,0,0,0-6.512-6.512H0v-8.814H2.154a6.561,6.561,0,0,0,6.512-6.561v-1.861H34.618v1.812a6.561,6.561,0,0,0,6.512,6.561Z" transform="translate(0 -152.032)" fill="#3bb54a"/><g transform="translate(0 0)"><path d="M378.038,154.971v5.435h-2.154a6.561,6.561,0,0,1-6.512-6.561v-1.812H375.1A2.938,2.938,0,0,1,378.038,154.971Z" transform="translate(-334.753 -152.033)" fill="#2ba037"/><path d="M8.667,344.112v.2H2.938A2.938,2.938,0,0,1,0,341.37v-5.435H2.154a6.561,6.561,0,0,1,6.512,6.512v1.665Z" transform="translate(0 -318.699)" fill="#2ba037"/><path d="M8.667,152.229v1.665a6.561,6.561,0,0,1-6.512,6.561H0v-5.484a2.938,2.938,0,0,1,2.938-2.938H8.667v.2Z" transform="translate(0 -152.033)" fill="#2ba037"/></g></g></g><circle cx="9.45" cy="9.45" r="9.45" transform="translate(12.192 68.158)" fill="#2ba037"/><path d="M195.962,216.1a1.518,1.518,0,1,1,1.518-1.518h0a.979.979,0,1,0,1.959,0,3.476,3.476,0,0,0-2.5-3.281V211a.979.979,0,1,0-1.959,0v.294a3.427,3.427,0,0,0,.979,6.757,1.518,1.518,0,0,1,1.518,1.518h0a1.518,1.518,0,0,1-3.036,0,.979.979,0,1,0-1.959,0,3.428,3.428,0,0,0,2.5,3.281v.392a.979.979,0,1,0,1.959,0v-.392a3.428,3.428,0,0,0,2.5-3.281A3.477,3.477,0,0,0,195.962,216.1Z" transform="translate(-174.319 -139.76)" fill="#fedb41"/></g><g transform="translate(1004 6008.5)"><circle cx="6" cy="6" r="6" transform="translate(0 0.5)" fill="#ffe14d"/><path d="M262.25,6.25A6.257,6.257,0,0,0,256,0V12.5A6.257,6.257,0,0,0,262.25,6.25Z" transform="translate(-249.75)" fill="#ffe14d"/><g transform="translate(1.489 1.489)"><path d="M65.761,70.521a4.761,4.761,0,1,1,4.761-4.761A4.766,4.766,0,0,1,65.761,70.521Z" transform="translate(-61 -61)" fill="#fb3"/></g><path d="M260.761,65.761A4.766,4.766,0,0,0,256,61v9.521A4.766,4.766,0,0,0,260.761,65.761Z" transform="translate(-249.75 -59.511)" fill="#e68a2e"/><g transform="translate(4.419 2.95)"><path d="M183.2,123.813v-1.448c.421.1.732.374.732.686a.366.366,0,0,0,.732,0,1.593,1.593,0,0,0-1.465-1.435v-.4a.366.366,0,0,0-.732,0v.4a1.435,1.435,0,1,0,0,2.87v1.448c-.421-.1-.732-.374-.732-.686a.366.366,0,1,0-.732,0,1.593,1.593,0,0,0,1.465,1.435v.4a.366.366,0,1,0,.732,0v-.4a1.435,1.435,0,1,0,0-2.87Zm-1.465-.762c0-.311.311-.582.732-.686v1.372C182.044,123.634,181.732,123.363,181.732,123.051Zm1.465,2.883v-1.372c.421.1.732.374.732.686S183.618,125.831,183.2,125.934Z" transform="translate(-181 -120.854)" fill="#ffe14d"/></g><path d="M256.366,127.083v-.4a1.435,1.435,0,1,0,0-2.87v-1.448c.421.1.732.374.732.686a.366.366,0,0,0,.732,0,1.593,1.593,0,0,0-1.465-1.435v-.4a.366.366,0,0,0-.366-.366v6.6A.366.366,0,0,0,256.366,127.083Zm0-2.52c.421.1.732.374.732.686s-.311.582-.732.686Z" transform="translate(-249.75 -117.904)" fill="#ffe14d"/></g><g transform="translate(934 6008.5)"><circle cx="6" cy="6" r="6" transform="translate(0 0.5)" fill="#ffe14d"/><path d="M262.25,6.25A6.257,6.257,0,0,0,256,0V12.5A6.257,6.257,0,0,0,262.25,6.25Z" transform="translate(-249.75)" fill="#ffe14d"/><g transform="translate(1.489 1.489)"><path d="M65.761,70.521a4.761,4.761,0,1,1,4.761-4.761A4.766,4.766,0,0,1,65.761,70.521Z" transform="translate(-61 -61)" fill="#fb3"/></g><path d="M260.761,65.761A4.766,4.766,0,0,0,256,61v9.521A4.766,4.766,0,0,0,260.761,65.761Z" transform="translate(-249.75 -59.511)" fill="#e68a2e"/><g transform="translate(4.419 2.95)"><path d="M183.2,123.813v-1.448c.421.1.732.374.732.686a.366.366,0,0,0,.732,0,1.593,1.593,0,0,0-1.465-1.435v-.4a.366.366,0,0,0-.732,0v.4a1.435,1.435,0,1,0,0,2.87v1.448c-.421-.1-.732-.374-.732-.686a.366.366,0,1,0-.732,0,1.593,1.593,0,0,0,1.465,1.435v.4a.366.366,0,1,0,.732,0v-.4a1.435,1.435,0,1,0,0-2.87Zm-1.465-.762c0-.311.311-.582.732-.686v1.372C182.044,123.634,181.732,123.363,181.732,123.051Zm1.465,2.883v-1.372c.421.1.732.374.732.686S183.618,125.831,183.2,125.934Z" transform="translate(-181 -120.854)" fill="#ffe14d"/></g><path d="M256.366,127.083v-.4a1.435,1.435,0,1,0,0-2.87v-1.448c.421.1.732.374.732.686a.366.366,0,0,0,.732,0,1.593,1.593,0,0,0-1.465-1.435v-.4a.366.366,0,0,0-.366-.366v6.6A.366.366,0,0,0,256.366,127.083Zm0-2.52c.421.1.732.374.732.686s-.311.582-.732.686Z" transform="translate(-249.75 -117.904)" fill="#ffe14d"/></g><g transform="translate(943 5926.001)"><g transform="translate(0 64.829)"><g transform="translate(0 0)"><path d="M378.039,335.934v5.435a2.938,2.938,0,0,1-2.938,2.938h-5.729v-1.861a6.561,6.561,0,0,1,6.512-6.512h2.154Z" transform="translate(-334.754 -318.698)" fill="#2ba037"/><path d="M43.285,160.405v8.863H41.13a6.561,6.561,0,0,0-6.512,6.512v1.861H8.667V175.78a6.561,6.561,0,0,0-6.512-6.512H0v-8.814H2.154a6.561,6.561,0,0,0,6.512-6.561v-1.861H34.618v1.812a6.561,6.561,0,0,0,6.512,6.561Z" transform="translate(0 -152.032)" fill="#3bb54a"/><g transform="translate(0 0)"><path d="M378.038,154.971v5.435h-2.154a6.561,6.561,0,0,1-6.512-6.561v-1.812H375.1A2.938,2.938,0,0,1,378.038,154.971Z" transform="translate(-334.753 -152.033)" fill="#2ba037"/><path d="M8.667,344.112v.2H2.938A2.938,2.938,0,0,1,0,341.37v-5.435H2.154a6.561,6.561,0,0,1,6.512,6.512v1.665Z" transform="translate(0 -318.699)" fill="#2ba037"/><path d="M8.667,152.229v1.665a6.561,6.561,0,0,1-6.512,6.561H0v-5.484a2.938,2.938,0,0,1,2.938-2.938H8.667v.2Z" transform="translate(0 -152.033)" fill="#2ba037"/></g></g></g><circle cx="9.45" cy="9.45" r="9.45" transform="translate(12.192 68.158)" fill="#2ba037"/><path d="M195.962,216.1a1.518,1.518,0,1,1,1.518-1.518h0a.979.979,0,1,0,1.959,0,3.476,3.476,0,0,0-2.5-3.281V211a.979.979,0,1,0-1.959,0v.294a3.427,3.427,0,0,0,.979,6.757,1.518,1.518,0,0,1,1.518,1.518h0a1.518,1.518,0,0,1-3.036,0,.979.979,0,1,0-1.959,0,3.428,3.428,0,0,0,2.5,3.281v.392a.979.979,0,1,0,1.959,0v-.392a3.428,3.428,0,0,0,2.5-3.281A3.477,3.477,0,0,0,195.962,216.1Z" transform="translate(-174.319 -139.76)" fill="#fedb41"/></g><g transform="translate(960 6010.5)"><circle cx="6" cy="6" r="6" transform="translate(0 0.5)" fill="#ffe14d"/><path d="M262.25,6.25A6.257,6.257,0,0,0,256,0V12.5A6.257,6.257,0,0,0,262.25,6.25Z" transform="translate(-249.75)" fill="#ffe14d"/><g transform="translate(1.489 1.489)"><path d="M65.761,70.521a4.761,4.761,0,1,1,4.761-4.761A4.766,4.766,0,0,1,65.761,70.521Z" transform="translate(-61 -61)" fill="#fb3"/></g><path d="M260.761,65.761A4.766,4.766,0,0,0,256,61v9.521A4.766,4.766,0,0,0,260.761,65.761Z" transform="translate(-249.75 -59.511)" fill="#e68a2e"/><g transform="translate(4.419 2.95)"><path d="M183.2,123.813v-1.448c.421.1.732.374.732.686a.366.366,0,0,0,.732,0,1.593,1.593,0,0,0-1.465-1.435v-.4a.366.366,0,0,0-.732,0v.4a1.435,1.435,0,1,0,0,2.87v1.448c-.421-.1-.732-.374-.732-.686a.366.366,0,1,0-.732,0,1.593,1.593,0,0,0,1.465,1.435v.4a.366.366,0,1,0,.732,0v-.4a1.435,1.435,0,1,0,0-2.87Zm-1.465-.762c0-.311.311-.582.732-.686v1.372C182.044,123.634,181.732,123.363,181.732,123.051Zm1.465,2.883v-1.372c.421.1.732.374.732.686S183.618,125.831,183.2,125.934Z" transform="translate(-181 -120.854)" fill="#ffe14d"/></g><path d="M256.366,127.083v-.4a1.435,1.435,0,1,0,0-2.87v-1.448c.421.1.732.374.732.686a.366.366,0,0,0,.732,0,1.593,1.593,0,0,0-1.465-1.435v-.4a.366.366,0,0,0-.366-.366v6.6A.366.366,0,0,0,256.366,127.083Zm0-2.52c.421.1.732.374.732.686s-.311.582-.732.686Z" transform="translate(-249.75 -117.904)" fill="#ffe14d"/></g></g></g></svg>