<svg xmlns="http://www.w3.org/2000/svg" xmlns:xlink="http://www.w3.org/1999/xlink" width="461.535" height="461.535" viewBox="0 0 461.535 461.535"><defs><filter id="a" x="0" y="0" width="461.535" height="461.535" filterUnits="userSpaceOnUse"><feOffset dx="10" dy="20" input="SourceAlpha"/><feGaussianBlur stdDeviation="15" result="b"/><feFlood flood-opacity="0.09"/><feComposite operator="in" in2="b"/><feComposite in="SourceGraphic"/></filter></defs><g transform="translate(-1333 -5686)"><g transform="matrix(1, 0, 0, 1, 1333, 5686)" filter="url(#a)"><circle cx="185.768" cy="185.768" r="185.768" transform="translate(35 25)" fill="#ffebeb"/></g><g transform="translate(-3 -91)"><rect width="206" height="195" rx="16" transform="translate(1454 5890)" fill="#eff8ff"/><g transform="translate(1430 5866)"><path d="M352,24h42.571v88.69H352Z" transform="translate(-182.548)" fill="#e6af89"/><g transform="translate(24 31.095)"><path d="M219.118,61.286a7.1,7.1,0,0,0-7.1-7.1H169.452V40h-8.68a13.3,13.3,0,0,0-9.407,3.9L141.071,54.19H24V96.762H130.428l18.83,9.415a45.236,45.236,0,0,0,20.228,4.775h42.536a7.1,7.1,0,1,0,0-14.19,7.1,7.1,0,1,0,0-14.19,7.1,7.1,0,1,0,0-14.19A7.1,7.1,0,0,0,219.118,61.286Z" transform="translate(-24 -40)" fill="#fdc9a6"/><path d="M416.833,163.548a7.09,7.09,0,0,1,5.02,2.075,7.163,7.163,0,0,1,1.126,1.472H395.548a3.548,3.548,0,1,1,0-7.1h27.432A7.093,7.093,0,0,1,416.833,163.548Z" transform="translate(-228.81 -106.786)" fill="#fdc9a6"/><path d="M416.833,131.548a7.089,7.089,0,0,1,5.02,2.075,7.164,7.164,0,0,1,1.126,1.472H395.548a3.548,3.548,0,1,1,0-7.1h27.432A7.093,7.093,0,0,1,416.833,131.548Z" transform="translate(-228.81 -88.976)" fill="#fdc9a6"/><path d="M421.853,101.623a7.163,7.163,0,0,1,1.126,1.472H395.548a3.548,3.548,0,1,1,0-7.1h27.432a7.093,7.093,0,0,1-6.146,3.548,7.09,7.09,0,0,1,5.02,2.075Z" transform="translate(-228.81 -71.167)" fill="#fdc9a6"/></g><path d="M392,99.548A3.548,3.548,0,0,1,395.548,96h27.432a7.093,7.093,0,0,1-6.146,3.548Z" transform="translate(-204.81 -40.072)" fill="#f6bb92"/><path d="M97.666,56a7.1,7.1,0,0,1,7.1,7.1v42.571h14.19v8.68a13.3,13.3,0,0,1-3.9,9.407l-10.294,10.294v102.88H62.19V144.69l-9.415-18.83A45.235,45.235,0,0,1,48,105.631V63.1a7.1,7.1,0,1,1,14.19,0,7.1,7.1,0,0,1,14.19,0,7.1,7.1,0,1,1,14.19,0,7.1,7.1,0,0,1,7.1-7.1Z" transform="translate(-13.357 -17.81)" fill="#f6bb92"/><path d="M226.1,224a6.252,6.252,0,0,1,4.42,1.831l5.265,5.265,5.264-5.264a6.251,6.251,0,0,1,10.351,2.443,9.627,9.627,0,0,1-3.119,10.562l-12.5,10-12.5-10a9.627,9.627,0,0,1-3.119-10.562A6.253,6.253,0,0,1,226.1,224Z" transform="translate(-108.901 -111.31)" fill="#e82f3e"/><path d="M392,131.548A3.548,3.548,0,0,1,395.548,128h27.432a7.093,7.093,0,0,1-6.146,3.548Z" transform="translate(-204.81 -57.881)" fill="#f6bb92"/><path d="M392,163.548A3.548,3.548,0,0,1,395.548,160h27.432a7.093,7.093,0,0,1-6.146,3.548Z" transform="translate(-204.81 -75.691)" fill="#f6bb92"/><path d="M144,89.119a3.548,3.548,0,0,0,3.548-3.548V58.14A7.093,7.093,0,0,0,144,64.286Z" transform="translate(-66.786 -19.001)" fill="#e6af89"/><path d="M112,89.119a3.548,3.548,0,0,0,3.548-3.548V58.14A7.093,7.093,0,0,0,112,64.286Z" transform="translate(-48.976 -19.001)" fill="#e6af89"/><path d="M80,89.119a3.548,3.548,0,0,0,3.548-3.548V58.14A7.093,7.093,0,0,0,80,64.286Z" transform="translate(-31.167 -19.001)" fill="#e6af89"/><path d="M64,337.666a7.1,7.1,0,0,0,7.1,7.1h42.571v14.19h8.68a13.3,13.3,0,0,0,9.407-3.9l10.294-10.294H252.023V302.19H152.69l-18.83-9.415A45.235,45.235,0,0,0,113.631,288H71.1a7.1,7.1,0,1,0,0,14.19,7.1,7.1,0,1,0,0,14.19,7.1,7.1,0,0,0,0,14.19A7.1,7.1,0,0,0,64,337.666Z" transform="translate(-22.262 -146.929)" fill="#fdc9a6"/><path d="M334.19,216v7.1l-9.415,18.83A45.235,45.235,0,0,0,320,262.154V304.69a7.1,7.1,0,1,0,14.19,0,7.1,7.1,0,1,0,14.19,0,7.1,7.1,0,0,0,14.19,0,7.1,7.1,0,1,0,14.19,0V262.119h14.19v-8.68a13.3,13.3,0,0,0-3.9-9.407l-10.294-10.294V216Z" transform="translate(-164.739 -106.858)" fill="#e6af89"/><path d="M416,360a3.548,3.548,0,0,1,3.548,3.548v27.432A7.092,7.092,0,0,1,416,384.833Z" transform="translate(-218.167 -187.001)" fill="#c99978"/><path d="M384,360a3.548,3.548,0,0,1,3.548,3.548v27.432A7.092,7.092,0,0,1,384,384.833Z" transform="translate(-200.358 -187.001)" fill="#c99978"/><path d="M352,360a3.548,3.548,0,0,1,3.548,3.548v27.432A7.092,7.092,0,0,1,352,384.833Z" transform="translate(-182.548 -187.001)" fill="#c99978"/><path d="M97.119,384a3.548,3.548,0,0,1-3.548,3.548H66.14A7.093,7.093,0,0,1,72.286,384Z" transform="translate(-23.453 -200.358)" fill="#e6af89"/><path d="M97.119,352a3.548,3.548,0,0,1-3.548,3.548H66.14A7.093,7.093,0,0,1,72.286,352Z" transform="translate(-23.453 -182.548)" fill="#e6af89"/><path d="M97.119,320a3.548,3.548,0,0,1-3.548,3.548H66.14A7.093,7.093,0,0,1,72.286,320Z" transform="translate(-23.453 -164.739)" fill="#e6af89"/></g></g></g></svg>