<svg xmlns="http://www.w3.org/2000/svg" width="208.24" height="176.014" viewBox="0 0 208.24 176.014"><g transform="translate(-1544.948 -601.594)"><g transform="translate(1545 619)" fill="#fff" stroke="#707070" stroke-width="1"><rect width="208" height="158" stroke="none"/><rect x="0.5" y="0.5" width="207" height="157" fill="none"/></g><path d="M31.319,279.88h22.7a.8.8,0,0,1,.8.8v11.186a.8.8,0,0,1-.8.8h-22.7a.8.8,0,0,1-.8-.8V280.679A.8.8,0,0,1,31.319,279.88Z" transform="translate(1564.273 482.613)" fill="none" stroke="#aadaf1" stroke-linecap="round" stroke-linejoin="round" stroke-width="2"/><path d="M61.8,247.82H84.49a.8.8,0,0,1,.8.8V259.8a.8.8,0,0,1-.8.8H61.8a.8.8,0,0,1-.8-.8V248.619A.8.8,0,0,1,61.8,247.82Z" transform="translate(1545.97 501.865)" fill="none" stroke="#aadaf1" stroke-linecap="round" stroke-linejoin="round" stroke-width="2"/><path d="M92.209,279.88h22.707a.8.8,0,0,1,.8.8v11.186a.8.8,0,0,1-.8.8H92.209a.8.8,0,0,1-.8-.8V280.679A.8.8,0,0,1,92.209,279.88Z" transform="translate(1527.708 482.613)" fill="none" stroke="#aadaf1" stroke-linecap="round" stroke-linejoin="round" stroke-width="2"/><path d="M57.859,70.036l7.854-1.646a2.089,2.089,0,0,1,2.477,1.6l3.232,14.981a2.057,2.057,0,0,1-1.6,2.441l-7.846,1.65a2.089,2.089,0,0,1-2.477-1.6L56.253,72.481a2.061,2.061,0,0,1,1.606-2.445Z" transform="translate(1548.847 609.641)" fill="#9b9b9b" fill-rule="evenodd"/><path d="M57.054,106.444c-.967-1.53-8.25-15.748-5.992-16.954s3.516.052,4.067,1.358c1.2-1.274,3.671-2.8,4.694-1.686,1.2,1.274.2,3.312-.7,4.107,1.027-.36,1.973-.571,2.8.579,1.051,1.43-.3,5.525-1.019,6.14l3.8,3.6S58.016,107.958,57.054,106.444Z" transform="translate(1552.197 597.371)" fill="#f77f89" fill-rule="evenodd"/><path d="M170.992,31c10.678,0,15.98,9.716,16.491,13.091s-.148,10.487.8,13.335c2.629,7.75,12.2,11.941,12.2,19.783,0,18.145-19.975,12.892-26.051,12.66S152.36,89.126,152.36,78.24c0-4.331,2.944-4.331,3-9.963.044-4.762-2.617-6.108-2.617-17.518C152.767,46.093,159.1,30.944,170.992,31Z" transform="translate(1491.107 632.067)" fill-rule="evenodd"/><path d="M-4398.731,960.5c.8-14.78,8.132-35.37,8.053-36.573-.9.275-3.775,2.166-5.813,1.549-4.857-1.474-24.141-36.476-23.969-37.262s8.019-4.215,8.817-3.963,16.854,21.431,18.344,23.213c1.637-2.05,14.53-14.377,17.978-16.715a18.484,18.484,0,0,0,.691,2.978c-9.4,12.033-7.535,41.454-7.248,44.372a76.545,76.545,0,0,1-2.276,22.4Z" transform="translate(6029 -184)" fill="#f7d167"/><path d="M179.135,205.1c-2.193.507-29.754-.1-32.271-1.622s-2-6.454,4.207-8.119c-2.2-.594-6.863-3.5-.571-4.519,1.123-12.209-3.751-56.9,15.628-57.685,13.7-2.19,15.98,10.869,15.98,10.869S181.329,204.595,179.135,205.1Z" transform="translate(1495.257 570.87)" fill="#6367fd" fill-rule="evenodd"/><path d="M177.161,44c-7.363,0-13.331,6.939-13.331,15.5s5.968,15.48,13.331,15.48a12.137,12.137,0,0,0,8.309-3.472c-.276-3.883-.312-7.826.288-9.887.927-2.557.591-1.486-.36-1.6l.835-.711c0-1.778.3-.563,2.073-.563l2.109-.088C190.053,50.5,184.272,44,177.161,44Z" transform="translate(1484.22 624.26)" fill="#f77f89" fill-rule="evenodd"/><path d="M157.813,53.313c2.852-.751,5.086-2.129,7.546-6.512,2.932,2.7,5.425,2.749,9.78,1.894-.256,2.129-.463,4.538,2.337,4.826s11.078,3.891,11.078,3.891l-.4-9.444-7.307-8.19-8.533-1.558-7.522,3.528-4.7,6.1S154.976,54.044,157.813,53.313Z" transform="translate(1488.347 627.731)" fill-rule="evenodd"/><path d="M206.42,70.343a5.809,5.809,0,1,1,1.706,4.116A5.813,5.813,0,0,1,206.42,70.343Z" transform="translate(1458.644 611.932)" fill="#f77f89" fill-rule="evenodd"/><path d="M191.293,99.326a21.287,21.287,0,0,1-.563,8.837c1.969,1.127,9.855,1.514,12.252-.212-.915-3.344-2.309-15.58-1.067-19.851C198.788,87.829,190.73,96.578,191.293,99.326Z" transform="translate(1468.066 597.781)" fill="#f77f89" fill-rule="evenodd"/><path d="M-4354.156,960.5a24.351,24.351,0,0,1-3.751-5.018c-2.736-5.017-6.037-53.48-5.816-57.016,3.871-2.262,5.364-5.346,6.615-8.5,14.034.435,30.034,29.694,34.085,45.43-1.579,8.094-8.273,17.3-10.187,19.475.382,1,1.427,3.087,2.586,5.629Z" transform="translate(6029 -184)" fill="#f7d167"/><path d="M234.373,210.55c1.374,2.185,10.918,16.587,10.918,16.587s-8.945,18.349-12.041,24.741" transform="translate(1442.532 524.246)" fill="none" stroke="#ff3274" stroke-linecap="round" stroke-linejoin="round" stroke-width="2"/><path d="M290.1,249.758a9.4,9.4,0,0,1,1.159-17.378" transform="translate(1411.57 511.137)" fill="none" stroke="#ff3274" stroke-linecap="round" stroke-linejoin="round" stroke-width="2"/><path d="M266.7,244.06l-3.316,3.2" transform="translate(1424.439 504.123)" fill="none" stroke="#ff3274" stroke-linecap="round" stroke-linejoin="round" stroke-width="2"/><path d="M267.475,253.6l-4.095-2.125" transform="translate(1424.439 499.673)" fill="none" stroke="#ff3274" stroke-linecap="round" stroke-linejoin="round" stroke-width="2"/><path d="M111.48,215.447a6.356,6.356,0,0,1,10.938,4.394v.148" transform="translate(1515.656 522.477)" fill="none" stroke="#ff3274" stroke-linecap="round" stroke-linejoin="round" stroke-width="2"/><path d="M127.94,185.79l-3.28,4.878" transform="translate(1507.741 539.114)" fill="none" stroke="#ff3274" stroke-linecap="round" stroke-linejoin="round" stroke-width="2"/><path d="M135.944,189.5l-2.824-3.919" transform="translate(1502.661 539.24)" fill="none" stroke="#ff3274" stroke-linecap="round" stroke-linejoin="round" stroke-width="2"/><path d="M79.434,131.65l-9.164,5.837" transform="translate(1540.403 571.626)" fill="none" stroke="#ff3274" stroke-linecap="round" stroke-linejoin="round" stroke-width="2"/><path d="M147.07,312.92a324.234,324.234,0,0,0,33.557.731" transform="translate(1494.284 462.772)" fill="none" stroke="#737999" stroke-linecap="round" stroke-linejoin="round" stroke-width="2"/><path d="M190.73,80.506c0-.8.328-1.426.735-1.426s.739.639.739,1.426-.332,1.422-.739,1.422S190.73,81.289,190.73,80.506Z" transform="translate(1468.066 603.194)" fill="#b5545c" fill-rule="evenodd"/><path d="M169.59,80.506c0-.8.332-1.426.739-1.426s.735.639.735,1.426-.328,1.422-.735,1.422S169.59,81.289,169.59,80.506Z" transform="translate(1480.761 603.194)" fill="#b5545c" fill-rule="evenodd"/><path d="M178.689,83.31c.12,1.111-.12,3.6-.959,4.682" transform="translate(1475.873 600.654)" fill="none" stroke="#b5545c" stroke-linecap="round" stroke-linejoin="round" stroke-width="2"/><path d="M190.221,100.55a1.83,1.83,0,0,1,.056.447,1.762,1.762,0,0,1-2.4,1.654" transform="translate(1469.777 590.301)" fill="none" stroke="#b5545c" stroke-linecap="round" stroke-linejoin="round" stroke-width="2"/><path d="M192.61,119.885a11.586,11.586,0,0,0,1.834.148,11.358,11.358,0,0,0,4.606-.983" transform="translate(1466.937 579.192)" fill="none" stroke="#b5545c" stroke-linecap="round" stroke-linejoin="round" stroke-width="2"/><path d="M212,72.544a3.759,3.759,0,1,1,3.715,4.335,3.9,3.9,0,0,1-1.063-.152" transform="translate(1455.293 609.032)" fill="none" stroke="#b5545c" stroke-linecap="round" stroke-linejoin="round" stroke-width="2"/><path d="M-4337.3,960.5l3.347-4.815Z" transform="translate(6029 -184)" fill="none" stroke="#ff3274" stroke-linecap="round" stroke-linejoin="round" stroke-width="2"/><path d="M270.49,37.17h4.61c.216,0,.4.256.4.571v2.872c0,.316-.18.567-.4.567h-4.61c-.216,0-.4-.252-.4-.567V37.741C270.094,37.426,270.274,37.17,270.49,37.17Z" transform="translate(1420.41 628.362)" fill="#ff3274" fill-rule="evenodd"/><path d="M283.84,39.928v1.766c0,.052-.036.072-.076.048l-1.534-.875-1.53-.883c-.044-.024-.044-.064,0-.088l1.53-.887,1.534-.883a.048.048,0,0,1,.076.044Z" transform="translate(1414.058 627.793)" fill="#ff3274" fill-rule="evenodd"/><path d="M262.36,31.981a6.791,6.791,0,1,1,6.791,6.791,6.791,6.791,0,0,1-6.791-6.791Z" transform="translate(1425.052 635.556)" fill="none" stroke="#ff3274" stroke-linecap="round" stroke-linejoin="round" stroke-width="2"/><path d="M25.583,1h97.3a9.883,9.883,0,0,1,9.883,9.883V60.449a9.883,9.883,0,0,1-9.883,9.883h-97.3A9.883,9.883,0,0,1,15.7,60.449V10.883A9.883,9.883,0,0,1,25.583,1Z" transform="translate(1573.173 650.082)" fill="none" stroke="#9b9b9b" stroke-linecap="round" stroke-linejoin="round" stroke-width="2"/><path d="M133.255,16.87H17.55" transform="translate(1572.062 640.552)" fill="none" stroke="#9b9b9b" stroke-linecap="round" stroke-linejoin="round" stroke-width="2"/><path d="M33.49,7.106A1.4,1.4,0,1,1,33.9,8.1,1.406,1.406,0,0,1,33.49,7.106Z" transform="translate(1562.489 647.26)" fill="none" stroke="#ff3274" stroke-linecap="round" stroke-linejoin="round" stroke-width="2"/><path d="M47.36,7.106a1.406,1.406,0,1,1,1.406,1.406A1.406,1.406,0,0,1,47.36,7.106Z" transform="translate(1554.161 647.26)" fill="none" stroke="#ff3274" stroke-linecap="round" stroke-linejoin="round" stroke-width="2"/><path d="M61.24,7.106a1.4,1.4,0,1,1,.411,1A1.406,1.406,0,0,1,61.24,7.106Z" transform="translate(1545.825 647.26)" fill="none" stroke="#ff3274" stroke-linecap="round" stroke-linejoin="round" stroke-width="2"/><path d="M56.118,100.522c-.535-1.27-.3-6.084,2.621-7.682" transform="translate(1549.038 594.931)" fill="#f77f89" stroke="#b5545c" stroke-linecap="round" stroke-linejoin="round" stroke-width="2" fill-rule="evenodd"/><path d="M66.2,106.684c-.328-1.6.527-4.958,2.265-6.144" transform="translate(1542.891 590.307)" fill="#f77f89" stroke="#b5545c" stroke-linecap="round" stroke-linejoin="round" stroke-width="2" fill-rule="evenodd"/><path d="M207.08,147.1a22.425,22.425,0,0,0,6.5-8.309" transform="translate(1458.248 567.338)" fill="none" stroke="#ff3274" stroke-linecap="round" stroke-linejoin="round" stroke-width="2"/><path d="M164.32,277.83c7.546,1.634,16.535,1.063,20.929.571" transform="translate(1483.925 483.844)" fill="none" stroke="#4c4fd9" stroke-linecap="round" stroke-linejoin="round" stroke-width="2"/><path d="M25.713,1h97.309a9.883,9.883,0,0,1,9.883,9.883V60.449a9.883,9.883,0,0,1-9.883,9.883H25.713a9.883,9.883,0,0,1-9.883-9.883V10.883A9.883,9.883,0,0,1,25.713,1Z" transform="translate(1573.095 650.082)" fill="#fff" fill-rule="evenodd" opacity="0.26" style="isolation:isolate"/><g transform="translate(1062 -61)"><path d="M8,0H200.241a8,8,0,0,1,8,8v9.974a0,0,0,0,1,0,0H0a0,0,0,0,1,0,0V8A8,8,0,0,1,8,0Z" transform="translate(482.948 662.594)" fill="#002e4e"/><circle cx="3.403" cy="3.403" r="3.403" transform="translate(490.292 668.581)" fill="#dd4e41"/><circle cx="3.403" cy="3.403" r="3.403" transform="translate(500.292 668.581)" fill="#f8ce5f"/><circle cx="3.403" cy="3.403" r="3.403" transform="translate(510.292 668.581)" fill="#4b9e65"/></g></g></svg>